<svg width="672" height="672" fill="none" xmlns="http://www.w3.org/2000/svg"><path fill="#00C574" d="M0 0h672v672H0z"/><mask id="a" style="mask-type:alpha" maskUnits="userSpaceOnUse" x="0" y="0" width="672" height="672"><path fill="#fff" d="M0 0h672v672H0z"/></mask><g clip-path="url(#b)" filter="url(#c)" mask="url(#a)"><path fill="#fff" d="M149 80h375v812H149z"/><path d="M149 80h375v485c0 8.837-7.163 16-16 16H165c-8.837 0-16-7.163-16-16V80z" fill="#FAFAFA"/><path opacity=".15" d="M360 112h-46c-8.837 0-16 7.163-16 16s7.163 16 16 16h46c8.837 0 16-7.163 16-16s-7.163-16-16-16z" fill="#08E189"/><path d="M322.078 132h1.043v-6.557h.539l-.703-.369 4.846 6.926h1.025v-8.455h-1.043v6.58h-.539l.703.369-4.845-6.949h-1.026V132zm11.373.111c.602 0 1.119-.131 1.553-.392a2.625 2.625 0 0 0 1.002-1.131c.238-.488.357-1.068.357-1.74v-.012c0-.676-.119-1.258-.357-1.746a2.586 2.586 0 0 0-1.002-1.125c-.434-.262-.951-.393-1.553-.393-.597 0-1.115.131-1.553.393a2.622 2.622 0 0 0-1.007 1.125c-.235.488-.352 1.07-.352 1.746v.012c0 .672.117 1.252.352 1.74a2.66 2.66 0 0 0 1.007 1.131c.438.261.956.392 1.553.392zm0-.902c-.398 0-.736-.094-1.013-.281a1.776 1.776 0 0 1-.639-.809c-.145-.351-.217-.775-.217-1.271v-.012c0-.5.072-.926.217-1.277.148-.352.361-.62.639-.803.277-.188.615-.281 1.013-.281.399 0 .737.093 1.014.281.277.183.488.451.633.803.148.351.222.777.222 1.277v.012c0 .496-.074.92-.222 1.271a1.752 1.752 0 0 1-.633.809c-.277.187-.615.281-1.014.281zm4.494.791h1.02v-3.914c0-.309.07-.578.211-.809.144-.23.342-.41.592-.539.25-.129.537-.193.861-.193.113 0 .219.006.316.017.102.008.205.022.311.042v-.991a3.39 3.39 0 0 0-.223-.023 2.257 2.257 0 0 0-.287-.018c-.426 0-.783.092-1.072.276a1.492 1.492 0 0 0-.615.773h-.094v-.937h-1.02V132zm7.166.047c.102 0 .201-.006.299-.018.098-.011.195-.025.293-.041v-.867l-.24.018a3.69 3.69 0 0 1-.229.006c-.328 0-.562-.081-.703-.241-.14-.164-.211-.431-.211-.802v-3.575h1.383v-.843h-1.383v-1.635h-1.054v1.635h-.996v.843h.996v3.832c0 .602.144 1.034.433 1.295.293.262.764.393 1.412.393zm4.612.064c.371 0 .705-.047 1.002-.14.3-.098.56-.227.779-.387.219-.164.396-.346.533-.545.141-.203.238-.412.293-.627l.012-.047h-1.02l-.023.053a1.104 1.104 0 0 1-.287.369 1.637 1.637 0 0 1-.522.299 2.144 2.144 0 0 1-.744.117c-.383 0-.715-.084-.996-.252a1.699 1.699 0 0 1-.65-.732c-.153-.321-.229-.705-.229-1.155v-.404c0-.472.078-.871.234-1.195a1.71 1.71 0 0 1 .633-.733c.27-.168.574-.252.914-.252.34 0 .641.081.903.241.261.156.466.394.615.715.148.32.223.728.223 1.224v.404l.503-.744h-4.541v.815h5.063v-.399c0-.629-.111-1.179-.334-1.652a2.547 2.547 0 0 0-.949-1.113c-.41-.266-.903-.399-1.477-.399-.57 0-1.068.139-1.494.416a2.753 2.753 0 0 0-.99 1.155c-.231.492-.346 1.064-.346 1.716v.006c0 .66.115 1.235.346 1.723.234.484.566.859.996 1.125.434.266.951.398 1.553.398z" fill="#02BA6F"/><path d="M486.5 123a2.5 2.5 0 1 0 0-5 2.5 2.5 0 0 0 0 5zM486.5 131a2.5 2.5 0 1 0 0-5 2.5 2.5 0 0 0 0 5zM486.5 139a2.5 2.5 0 1 0 0-5 2.5 2.5 0 0 0 0 5z" fill="#555"/><path d="m176 128 8-8M176.5 128.5l7.748 8.056M176.128 128.278H198" stroke="#555" stroke-width="2" stroke-linecap="round"/><ellipse cx="294" cy="380.5" rx="94" ry="14.5" fill="#333" fill-opacity=".05"/><ellipse cx="402.5" cy="416" rx="70.5" ry="18" fill="#333" fill-opacity=".05"/><g clip-path="url(#d)"><rect x="352.339" y="189.793" width="93.453" height="73.727" rx="8" fill="#FFC843" fill-opacity=".15"/><rect x="385.485" y="198.164" width="50.359" height="39.403" rx="5" fill="#FAFAFA"/><rect x="390.354" y="270.655" width="55.438" height="43.602" rx="8" fill="#F0F0F0"/><rect x="228" y="191.378" width="30.887" height="24.576" rx="8" fill="#F0F0F0"/><path d="M234 377c-4.433-.746-4.868-5.836-5-8.011L295.489 362 360 364.796c-.132 1.242-.554 4.38-1.187 6.989-.634 2.61-4.438 5.249-6.813 5.715-13.72 2.796-43.45 7.612-48.199 8.73-4.75 1.118-13.061.777-16.623.466-15.567-3.106-48.745-8.95-53.178-9.696z" fill="#FAFAFA"/><path d="m333.375 335.076-23.501 3.747M347.435 358.546l-42.606 6.792M271.616 247.433a25.022 25.022 0 0 1-3.939-10.35" stroke="#333" stroke-width="1.5" stroke-linecap="round" stroke-linejoin="round"/><path d="M263.577 235.559c-1.768-1.685-1.608-4.974 2.01-3.932 0 0-2.814-2.487 1.206-4.493 4.019-2.006 15.676-14.923 9.887-16.448-5.789-1.525-14.137 3.894-9.968 3.771 2.65-.078.321-3.53-3.056-2.166-3.376 1.363-10.771 9.948-6.994 10.992 3.777 1.043-.563-5.456-2.974.08-2.411 5.537-2.4 12.406 15.596 20.225" stroke="#333" stroke-width="1.5" stroke-linecap="round" stroke-linejoin="round"/><path d="m285.685 243.663-2.653-4.894a13.79 13.79 0 0 0 2.572-13.8s10.45-5.215-.563-2.889c0 0-3.136-4.814-8.12-5.536" stroke="#333" stroke-width="1.5" stroke-linecap="round" stroke-linejoin="round"/><path d="M279.273 222.151s-.649 2.141-3.148 1.084M284.612 228.803s-.295.174-2.385-.468" stroke="#333" stroke-width="1.5" stroke-linecap="round" stroke-linejoin="round"/><path d="M425.219 408.597s.115-14.274 4.96-13.008c4.845 1.267-3.691 7.712-4.96 13.008z" stroke="#5DCA83" stroke-width="1.5" stroke-miterlimit="10"/><path d="M425.104 408.597s6.574-7.942 10.496-5.41c3.921 2.532-9.112 3.453-10.496 5.41z" stroke="#5DCA83" stroke-width="1.5" stroke-miterlimit="10"/><path d="M394.506 412.069s6.642 14.752 9.456 17.931c0 0 30.826-9.628 41.038-18.686 0 0-16.832-3.209-27.044-2.831l-3.592-5.851s-16.076 6.228-19.858 9.437z" fill="#333"/><path d="M394.138 394.734s6.419-12.756 10.204-9.485c3.785 3.271-6.721 5.294-10.204 9.485z" stroke="#5DCA83" stroke-width="2.835" stroke-miterlimit="10"/><path d="M394.034 394.683s9.413-4.229 11.811-.229c2.397 4.001-9.703-.917-11.811.229z" stroke="#5DCA83" stroke-width="2.835" stroke-miterlimit="10"/><path d="M365.045 384.314s-.567 16.163.551 20.256c0 0 31.917 4.948 45.088 1.32 0 0-13.681-10.297-23.011-14.458l-.636-6.834s-17.178-1.496-21.992-.284z" fill="#333"/><path d="M338.271 257.274s8.635 5.043 10.624 22.022c0 0 54.344-4.282 59.656 11.419 5.313 15.701-9.398 71.571-9.398 71.571l19.609 39.149s-22.883 8.564-26.764 12.234l-17.77-27.727-10.01-1.635 1.429-11.214-12.87-21.614s-27.786-14.885-32.689-16.924c0 0-2.357-.881-9.508-1.289l1.261-3.425c.949-5.271-.661-9.055-4.571-12.722-.27-.253-1.477-.915-1.763-1.14l-8.263-4.387-5.889-1.842-1.634 3.733a18.463 18.463 0 0 1-3.746-2.487 24.2 24.2 0 0 1-.367-3.713c3.113-11.986 15.317-48.47 52.663-50.009zm38.833 64.523-.352-5.724-4.749-.656 5.101 6.38z" fill="#00C574"/><path d="M333.124 286.015s36.094 21.32 44.197 36.269c8.102 14.948 41.005 79.156 41.005 79.156s-22.642 10.205-27.129 11.644c0 0-36.306-58.062-38.421-61.603-2.115-3.541 3.409-2.36 2.423-1.375-.986.985-3.154 1.574-9.668-2.166-4.122-2.369-11.688-6.567-18.356-10.119M319.571 255.215a1.899 1.899 0 0 1-2.116 1.407M340.999 259.575c-4.001-4.414-10.009-7.87-18.917-9.231" stroke="#333" stroke-width="1.5" stroke-linecap="round" stroke-linejoin="round"/><path d="M346.943 294.695a51.87 51.87 0 0 0 .835-20.66M283.427 314.079s7.286 6.579 5.856 9.04c-1.879 3.232-6.865-.797-9.276-3.41" stroke="#333" stroke-width="1.5" stroke-linecap="round" stroke-linejoin="round"/><path d="M323.826 250.376c-1.323-.881-10.217-2.083-11.688-2.693-4.836-2.009-10.716-7.181-14.88-5.529-5.575 2.213-7.257 2.492-7.257 2.492l-3.471-3.135s-13.226 5.277-16.531 5.115v8.576s-27.443 1.98-22.153 36.794l20.665-.33.165 2.31 2.232 3.414a31.75 31.75 0 0 0 5.508 6.388l3.221 2.861 5.974.648s6.044-43.664 38.28-56.863l-.065-.048z" fill="#5C25FF"/><path d="M248.346 291.927s-1.871 20.214 1.334 22.043c3.205 1.828 21.057 4.417 21.057 4.417s5.188 6.851 7.783 7.006c2.594.156 4.272-3.35-.459-8.224M268.896 291.663l.003 11.243" stroke="#333" stroke-width="1.5" stroke-linecap="round" stroke-linejoin="round"/><path d="M372.812 315.667c.019 0 3.823.379 7.595.833" stroke="#333" stroke-width="1.5" stroke-miterlimit="10" stroke-linecap="round"/><path d="M311.915 246.504a41.207 41.207 0 0 0-3.727 4.291c-1.02 1.554-3.234 3.518-3.563.94-.328-2.579-.409-1.594-.409-1.594s-.982 3.432-2.169 3.964c-1.188.531-3.399.37-3.277-4.907 0 0-3.358 4.414-4.586 2.942-1.228-1.472-.451-4.658.205-5.843.656-1.185 1.132-1.35 1.132-1.35a32.629 32.629 0 0 1-5.517-.306 24.26 24.26 0 0 1 4.958-2.882c1.966-.653 8.108-1.594 11.302 0a19.305 19.305 0 0 1 5.651 4.745z" fill="#fff"/><path d="M312.143 247.257a5.488 5.488 0 0 0-3.556 2.839c-1.067 2.306-4.001 5.324-4.267-.532 0 0-1.689 4.613-3.022 4.968-1.333.354-3.555-1.775-1.956-6.921 0 0-2.755 4.703-4.712 4.525-1.956-.178-1.778-3.992.889-7.186M323.597 250.649s-5.625-10.099-14.388-11.017c-10.835-1.141-12.445 2.484-12.445 2.484" stroke="#333" stroke-width="1.5" stroke-linecap="round" stroke-linejoin="round"/><path d="M298.126 240.801s-5.093.076-8.442 3.625" stroke="#333" stroke-width="1.5" stroke-linecap="round" stroke-linejoin="round"/><path d="m289.627 313.089 1.281-.361c.81-.446 1.308-1.466.706-2.167l-1.955-1.77-4.046-1.507-.713 2.91 4.727 2.895z" fill="#fff"/><path d="M285.979 310.996s6.988 4.759 7.52 6.769c.715 2.705-1.903 3.408-5.195 1.732" stroke="#333" stroke-width="1.5" stroke-linecap="round" stroke-linejoin="round"/><path d="M263.413 301.937s12.209 2.592 14.955 4.57c0 0 8.088-.153 11.293 2.285 0 0 5.538 3.287-.164 4.642M294.867 383.159v-31.678" stroke="#333" stroke-width="1.5" stroke-linecap="round" stroke-linejoin="round"/><path d="M290.773 309.509c5.995 1.805 14.657 5.055 18.214 9.555 3.327 4.205 6.078 14.124-4.739 19.685-9.803 5.04-14.161 2.507-30.683-1.072-16.521-3.579-26.332-5.521-26.332-5.521M286.207 233.005l11.623-1.893a12.782 12.782 0 0 1 9.024 1.832 12.738 12.738 0 0 1 5.44 7.416" stroke="#333" stroke-width="1.5" stroke-linecap="round" stroke-linejoin="round"/><path d="M359.735 362.796v6.342c0 1.997-.708 3.93-1.998 5.456a8.481 8.481 0 0 1-5.052 2.884l-50.081 8.517a51.75 51.75 0 0 1-17.329 0l-49.606-8.417a8.38 8.38 0 0 1-4.995-2.848 8.352 8.352 0 0 1-1.976-5.392V253.612c0-3.006 1.066-5.914 3.008-8.21a12.756 12.756 0 0 1 7.603-4.338l19.295-3.287" stroke="#333" stroke-width="1.5" stroke-linecap="round" stroke-linejoin="round"/><path d="M335.314 237.775c19.307 0 34.958-10.918 34.958-24.387 0-13.469-15.651-24.388-34.958-24.388-19.306 0-34.957 10.919-34.957 24.388 0 13.469 15.651 24.387 34.957 24.387z" fill="#FFC843"/><path d="M294.565 213.084a3.344 3.344 0 0 0 3.347-3.34 3.344 3.344 0 0 0-3.347-3.341 3.344 3.344 0 0 0-3.346 3.341 3.343 3.343 0 0 0 3.346 3.34zM285.555 215.997a2.167 2.167 0 1 0 0-4.331c-1.199 0-2.17.969-2.17 2.165 0 1.196.971 2.166 2.17 2.166z" fill="#3A86F7"/><path d="M243.825 259.322v55.119" stroke="#333" stroke-width="1.5" stroke-linecap="round" stroke-linejoin="round"/><path d="M335.315 209.213a71.601 71.601 0 0 1-18.912-2.314c1.206-4.916 9.211-8.716 18.912-8.716 9.702 0 17.706 3.796 18.912 8.716a71.638 71.638 0 0 1-18.912 2.314zM317.805 218.553a93.354 93.354 0 0 0 35.019 0c1.299 1.17.134 2.499.464 3.921a70.868 70.868 0 0 1-35.95 0c.333-1.422-.829-2.751.467-3.921z" fill="#fff" stroke="#333" stroke-width="1.5" stroke-linecap="round" stroke-linejoin="round"/><path d="M335.172 220.29a105.322 105.322 0 0 1-18.051-1.562 3.248 3.248 0 0 1 .104-4.374h36.024a3.25 3.25 0 0 1 .104 4.374c-5.961 1.038-12 1.561-18.051 1.562" fill="#fff"/><path d="M335.172 220.29a105.322 105.322 0 0 1-18.051-1.562 3.248 3.248 0 0 1 .104-4.374h36.024a3.25 3.25 0 0 1 .104 4.374c-5.961 1.038-12 1.561-18.051 1.562" stroke="#333" stroke-width="1.5" stroke-linecap="round" stroke-linejoin="round"/><path d="M317.336 211.657s-2.859 1.042-3.068 3.542a39.498 39.498 0 0 1 21.013 1.982h.064a39.515 39.515 0 0 1 21.015-1.979c-.209-2.499-3.068-3.541-3.068-3.541" fill="#F7C95D"/><path d="M317.336 211.657s-2.859 1.042-3.068 3.542a39.498 39.498 0 0 1 21.013 1.982h.064a39.515 39.515 0 0 1 21.015-1.979c-.209-2.499-3.068-3.541-3.068-3.541" stroke="#333" stroke-width="1.5" stroke-linecap="round" stroke-linejoin="round"/><path d="M335.249 213.085a105.333 105.333 0 0 1-18.052-1.562 3.248 3.248 0 0 1 .104-4.374s15.504 4.829 36.024 0a3.248 3.248 0 0 1 .104 4.374c-5.961 1.038-12 1.561-18.051 1.562" fill="#fff"/><path d="M335.249 213.085a105.333 105.333 0 0 1-18.052-1.562 3.248 3.248 0 0 1 .104-4.374s15.504 4.829 36.024 0a3.248 3.248 0 0 1 .104 4.374c-5.961 1.038-12 1.561-18.051 1.562M320.725 204.742h.731M328.546 200.875l.876.584M342.359 201.97l-.805.364M334.831 207.513l-.073-1.167M334.392 203.356l.731-.438M346.451 205.471l1.17-.511M328.034 206.201l-.877-.292M347.329 201.751l1.242-.073M341.92 207.951l-.731-.291M337.974 199.417l-.731-.511M323.795 201.24l-.585-.073" stroke="#333" stroke-width="1.5" stroke-linecap="round" stroke-linejoin="round"/></g><path d="M181.439 542h3.323l7.558-21.568h.071L199.949 542h3.322l-9.351-25.365h-3.129L181.439 542zm4.729-7.26h12.375v-2.689h-12.375v2.689zm24.416 7.612c.305 0 .604-.018.896-.053.305-.024.551-.047.739-.07v-2.479a10.78 10.78 0 0 0-.457.053 7.9 7.9 0 0 1-.528.017c-.82 0-1.441-.17-1.863-.509-.422-.352-.633-1.014-.633-1.987V526.25h3.481v-2.531h-3.481v-4.94h-3.164v4.94h-2.672v2.531h2.672v11.092c0 1.746.416 3.017 1.248 3.814.832.797 2.086 1.196 3.762 1.196zm12.199 0a9.19 9.19 0 0 0 2.778-.405 8.072 8.072 0 0 0 2.285-1.16 6.736 6.736 0 0 0 1.634-1.74 5.925 5.925 0 0 0 .879-2.109l.036-.176h-3.006l-.053.158a3.567 3.567 0 0 1-.879 1.406c-.41.41-.92.733-1.529.967-.61.234-1.301.352-2.074.352-1.102 0-2.057-.241-2.866-.721-.808-.492-1.435-1.195-1.881-2.11-.433-.914-.65-2.015-.65-3.304v-1.178c0-1.359.223-2.502.668-3.428.445-.937 1.055-1.64 1.828-2.109.774-.481 1.647-.721 2.619-.721.973 0 1.834.229 2.584.686.75.445 1.336 1.131 1.758 2.056.434.926.65 2.098.65 3.516v1.178l1.547-2.215h-13.218v2.391h14.73v-1.125c0-1.829-.322-3.434-.967-4.817-.644-1.383-1.57-2.455-2.777-3.217-1.195-.773-2.625-1.16-4.289-1.16-1.664 0-3.111.404-4.342 1.213-1.23.797-2.186 1.916-2.865 3.358-.68 1.429-1.02 3.087-1.02 4.974v.018c0 1.91.334 3.574 1.002 4.992.68 1.406 1.647 2.496 2.901 3.269 1.265.774 2.771 1.161 4.517 1.161zm.756-20.725 3.85-5.273h-3.2l-3.005 5.273h2.355zm25.137 20.725c1.687 0 3.164-.387 4.429-1.161 1.266-.773 2.25-1.869 2.954-3.287.714-1.418 1.072-3.099 1.072-5.045v-.035c0-1.945-.358-3.621-1.072-5.027-.704-1.418-1.694-2.508-2.971-3.27-1.266-.773-2.742-1.16-4.43-1.16-1.676 0-3.152.387-4.429 1.16-1.266.762-2.256 1.852-2.971 3.27-.703 1.406-1.055 3.082-1.055 5.027v.035c0 1.934.352 3.616 1.055 5.045.715 1.418 1.705 2.514 2.971 3.287 1.277.774 2.759 1.161 4.447 1.161zm.017-2.707c-1.078 0-2.021-.264-2.83-.791-.797-.54-1.418-1.313-1.863-2.321-.445-1.019-.668-2.244-.668-3.674v-.035c0-1.429.223-2.642.668-3.638.445-1.008 1.066-1.776 1.863-2.303.809-.539 1.741-.809 2.795-.809 1.078 0 2.016.264 2.813.791.808.528 1.429 1.295 1.863 2.303.445 1.008.668 2.227.668 3.656v.035c0 1.43-.223 2.655-.668 3.674-.434 1.008-1.049 1.781-1.846 2.321-.785.527-1.717.791-2.795.791zm24.856 2.707c.305 0 .603-.018.896-.053.305-.024.551-.047.739-.07v-2.479c-.129.012-.282.029-.457.053-.165.011-.34.017-.528.017-.82 0-1.441-.17-1.863-.509-.422-.352-.633-1.014-.633-1.987V526.25h3.481v-2.531h-3.481v-4.94h-3.164v4.94h-2.672v2.531h2.672v11.092c0 1.746.416 3.017 1.248 3.814.832.797 2.086 1.196 3.762 1.196zm11.162 0c1.394 0 2.555-.276 3.48-.827.938-.562 1.653-1.271 2.145-2.127h.07V542h3.059v-18.281h-3.059v10.758c0 1.031-.199 1.939-.597 2.724a4.339 4.339 0 0 1-1.653 1.811c-.715.422-1.552.633-2.513.633-1.407 0-2.461-.393-3.164-1.178-.692-.797-1.038-1.94-1.038-3.428v-11.32h-3.058v11.865c0 1.383.246 2.584.738 3.604.504 1.007 1.225 1.787 2.162 2.337.949.551 2.092.827 3.428.827zm20.32 0c1.383 0 2.614-.27 3.692-.809 1.089-.551 1.974-1.289 2.654-2.215a6.832 6.832 0 0 0 1.283-3.146l.018-.123h-3.006l-.035.14c-.258 1.02-.78 1.852-1.565 2.496-.773.633-1.787.95-3.041.95-1.054 0-1.986-.27-2.795-.809-.797-.539-1.424-1.313-1.881-2.32-.445-1.008-.667-2.221-.667-3.639v-.018c0-1.382.222-2.578.667-3.586.446-1.019 1.067-1.804 1.864-2.355.797-.563 1.722-.844 2.777-.844 1.348 0 2.397.346 3.147 1.037.761.692 1.253 1.494 1.476 2.409l.035.14h2.989l-.018-.14c-.129-1.043-.51-2.034-1.143-2.971-.621-.938-1.476-1.699-2.566-2.285-1.09-.598-2.396-.897-3.92-.897-1.687 0-3.164.387-4.43 1.16-1.265.774-2.25 1.869-2.953 3.287-.703 1.418-1.054 3.088-1.054 5.01v.018c0 1.933.345 3.615 1.037 5.045.691 1.418 1.67 2.519 2.935 3.304 1.278.774 2.778 1.161 4.5 1.161zm16.699 0c1.395 0 2.555-.276 3.481-.827.937-.562 1.652-1.271 2.144-2.127h.071V542h3.058v-18.281h-3.058v10.758c0 1.031-.199 1.939-.598 2.724a4.336 4.336 0 0 1-1.652 1.811c-.715.422-1.553.633-2.514.633-1.406 0-2.461-.393-3.164-1.178-.691-.797-1.037-1.94-1.037-3.428v-11.32h-3.059v11.865c0 1.383.246 2.584.739 3.604.504 1.007 1.224 1.787 2.162 2.337.949.551 2.092.827 3.427.827zm12.745 5.8h3.058v-9.211h.071a6.894 6.894 0 0 0 1.441 1.829 6.61 6.61 0 0 0 2.004 1.177c.75.27 1.553.405 2.408.405 1.535 0 2.877-.387 4.025-1.161 1.161-.785 2.063-1.886 2.707-3.304.657-1.418.985-3.088.985-5.01v-.018c0-1.921-.322-3.591-.967-5.009-.645-1.43-1.553-2.532-2.725-3.305-1.16-.785-2.519-1.178-4.078-1.178-.867 0-1.67.141-2.408.422a6.266 6.266 0 0 0-1.969 1.195 6.726 6.726 0 0 0-1.423 1.828h-.071v-3.093h-3.058v24.433zm8.332-8.507c-1.032 0-1.946-.282-2.743-.844-.785-.563-1.406-1.348-1.863-2.356-.457-1.019-.685-2.209-.685-3.568v-.018c0-1.371.222-2.56.668-3.568.457-1.02 1.084-1.811 1.88-2.373.797-.563 1.711-.844 2.743-.844 1.078 0 2.009.276 2.795.826.785.539 1.388 1.319 1.81 2.338.422 1.008.633 2.215.633 3.621v.018c0 1.383-.211 2.584-.633 3.603-.422 1.008-1.025 1.788-1.81 2.338-.786.551-1.717.827-2.795.827zM354.461 542h3.059v-18.281h-3.059V542zm1.529-21.375c.539 0 .99-.187 1.354-.563.375-.374.562-.826.562-1.353 0-.539-.187-.99-.562-1.354a1.81 1.81 0 0 0-1.354-.562c-.527 0-.978.187-1.353.562a1.811 1.811 0 0 0-.563 1.354c0 .527.188.979.563 1.353.375.376.826.563 1.353.563zM182.078 492h5.238v-.949h-4.183v-2.906h3.967v-.938h-3.967v-2.713h4.183v-.949h-5.238V492zm6.516 0h1.142l1.5-2.385h.094l1.494 2.385h1.196l-2.174-3.199 2.144-3.117h-1.142l-1.483 2.349h-.094l-1.5-2.349h-1.201l2.186 3.158-2.162 3.158zm6.797 2.109h1.019v-3.105h.094c.117.226.273.422.469.586.199.164.425.293.679.387.258.089.532.134.821.134.535 0 1-.134 1.394-.404.399-.269.707-.648.926-1.137.219-.488.328-1.062.328-1.722v-.012c0-.656-.109-1.229-.328-1.717-.219-.488-.527-.867-.926-1.137-.394-.273-.859-.41-1.394-.41a2.39 2.39 0 0 0-.815.135c-.25.09-.472.219-.668.387a2.089 2.089 0 0 0-.486.597h-.094v-1.007h-1.019v8.425zm2.847-2.9c-.383 0-.713-.096-.99-.287a1.828 1.828 0 0 1-.639-.815c-.148-.355-.222-.775-.222-1.259v-.012c0-.488.074-.908.222-1.26.149-.351.362-.623.639-.814.277-.192.607-.287.99-.287.387 0 .717.095.991.287.273.187.482.457.626.808.149.352.223.774.223 1.266v.012c0 .488-.074.91-.223 1.265a1.798 1.798 0 0 1-.626.815c-.274.187-.604.281-.991.281zm4.477.791h1.019v-3.914c0-.309.071-.578.211-.809.145-.23.342-.41.592-.539.25-.129.537-.193.861-.193.114 0 .219.006.317.017.101.008.205.022.31.042v-.991a3.345 3.345 0 0 0-.222-.023 2.268 2.268 0 0 0-.287-.018c-.426 0-.784.092-1.073.276a1.492 1.492 0 0 0-.615.773h-.094v-.937h-1.019V492zm6.973.111c.371 0 .705-.047 1.001-.14a2.76 2.76 0 0 0 .78-.387c.219-.164.396-.346.533-.545.141-.203.238-.412.293-.627l.012-.047h-1.02l-.023.053a1.104 1.104 0 0 1-.287.369 1.637 1.637 0 0 1-.522.299 2.144 2.144 0 0 1-.744.117c-.383 0-.715-.084-.996-.252a1.707 1.707 0 0 1-.651-.732c-.152-.321-.228-.705-.228-1.155v-.404c0-.472.078-.871.234-1.195a1.71 1.71 0 0 1 .633-.733c.27-.168.574-.252.914-.252.34 0 .641.081.903.241.261.156.466.394.615.715.148.32.222.728.222 1.224v.404l.504-.744h-4.541v.815h5.063v-.399c0-.629-.112-1.179-.334-1.652a2.547 2.547 0 0 0-.949-1.113c-.411-.266-.903-.399-1.477-.399-.57 0-1.068.139-1.494.416a2.753 2.753 0 0 0-.99 1.155c-.231.492-.346 1.064-.346 1.716v.006c0 .66.115 1.235.346 1.723.234.484.566.859.996 1.125.433.266.951.398 1.553.398zm6.445 0c.48 0 .91-.08 1.289-.24a2.2 2.2 0 0 0 .908-.668c.223-.289.334-.621.334-.996v-.012c0-.453-.146-.814-.439-1.084-.289-.269-.731-.476-1.325-.621l-.972-.234c-.371-.09-.641-.205-.809-.346a.664.664 0 0 1-.252-.533v-.012c0-.187.057-.351.17-.492.113-.141.268-.25.463-.328.195-.082.418-.123.668-.123.383 0 .693.078.932.234.238.156.39.36.457.61h1.002a1.743 1.743 0 0 0-.387-.897 1.994 1.994 0 0 0-.826-.586 3.059 3.059 0 0 0-1.172-.211c-.445 0-.846.08-1.201.24a2.107 2.107 0 0 0-.844.657 1.557 1.557 0 0 0-.305.943v.006c0 .453.139.816.416 1.09.278.269.711.474 1.301.615l.979.234c.39.094.671.217.843.37.172.148.258.33.258.544v.012a.767.767 0 0 1-.187.51c-.125.145-.297.26-.516.346a2.098 2.098 0 0 1-.75.123c-.402 0-.729-.08-.979-.241a1.168 1.168 0 0 1-.503-.632h-1.043c.039.347.166.65.38.908.219.258.508.459.868.603.359.141.773.211 1.242.211zm6.164 0c.48 0 .91-.08 1.289-.24a2.2 2.2 0 0 0 .908-.668c.223-.289.334-.621.334-.996v-.012c0-.453-.146-.814-.439-1.084-.289-.269-.731-.476-1.325-.621l-.972-.234c-.371-.09-.641-.205-.809-.346a.664.664 0 0 1-.252-.533v-.012c0-.187.057-.351.17-.492.113-.141.268-.25.463-.328.195-.082.418-.123.668-.123.383 0 .693.078.932.234.238.156.39.36.457.61h1.002a1.743 1.743 0 0 0-.387-.897 1.988 1.988 0 0 0-.826-.586 3.059 3.059 0 0 0-1.172-.211c-.445 0-.846.08-1.201.24a2.107 2.107 0 0 0-.844.657 1.557 1.557 0 0 0-.305.943v.006c0 .453.139.816.416 1.09.278.269.711.474 1.301.615l.979.234c.39.094.671.217.843.37.172.148.258.33.258.544v.012a.767.767 0 0 1-.187.51c-.125.145-.297.26-.516.346a2.098 2.098 0 0 1-.75.123c-.402 0-.728-.08-.978-.241a1.175 1.175 0 0 1-.504-.632h-1.043c.039.347.166.65.381.908.218.258.507.459.867.603.359.141.773.211 1.242.211zm5.848 0c.285 0 .546-.039.785-.117.238-.082.451-.201.638-.357.192-.157.354-.346.487-.569h.093V492h1.02v-4.324c0-.438-.094-.813-.281-1.125a1.783 1.783 0 0 0-.815-.727c-.355-.168-.791-.252-1.306-.252-.45 0-.85.071-1.202.211-.351.137-.638.33-.861.58a1.692 1.692 0 0 0-.41.867l-.006.036h1.02l.005-.018a.994.994 0 0 1 .487-.568c.242-.137.553-.205.931-.205.473 0 .827.103 1.061.31.238.203.357.5.357.891v1.969c0 .3-.078.57-.234.808a1.617 1.617 0 0 1-.633.568 2.014 2.014 0 0 1-.926.206c-.367 0-.671-.088-.914-.264-.242-.18-.363-.43-.363-.75v-.012c0-.312.11-.555.328-.726.223-.172.574-.272 1.055-.299l2.197-.141v-.814l-2.32.14c-.734.043-1.303.225-1.705.545-.399.317-.598.756-.598 1.319v.011c0 .383.092.715.276.996.187.282.439.498.755.651.321.152.68.228 1.079.228zm1.365-7.347c.402 0 .719-.145.949-.434.23-.289.346-.685.346-1.189v-.065h-.821v.024c0 .296-.039.519-.117.668-.078.148-.191.222-.34.222a.4.4 0 0 1-.228-.07 1.786 1.786 0 0 1-.276-.281l-.052-.065a1.288 1.288 0 0 0-.434-.363 1.102 1.102 0 0 0-.51-.111c-.402 0-.72.144-.955.433-.23.289-.345.686-.345 1.19v.064h.82v-.023c0-.301.039-.524.117-.668.082-.149.197-.223.346-.223.082 0 .16.025.234.076.074.051.164.143.27.276l.052.064c.141.168.284.289.428.363.149.075.32.112.516.112zm6.117 7.347c.602 0 1.119-.131 1.553-.392a2.63 2.63 0 0 0 1.002-1.131c.238-.488.357-1.068.357-1.74v-.012c0-.676-.119-1.258-.357-1.746a2.592 2.592 0 0 0-1.002-1.125c-.434-.262-.951-.393-1.553-.393-.598 0-1.115.131-1.553.393a2.63 2.63 0 0 0-1.008 1.125c-.234.488-.351 1.07-.351 1.746v.012c0 .672.117 1.252.351 1.74a2.67 2.67 0 0 0 1.008 1.131c.438.261.955.392 1.553.392zm0-.902c-.398 0-.736-.094-1.014-.281a1.78 1.78 0 0 1-.638-.809c-.145-.351-.217-.775-.217-1.271v-.012c0-.5.072-.926.217-1.277.148-.352.361-.62.638-.803.278-.188.616-.281 1.014-.281s.736.093 1.014.281c.277.183.488.451.632.803.149.351.223.777.223 1.277v.012c0 .496-.074.92-.223 1.271a1.744 1.744 0 0 1-.632.809c-.278.187-.616.281-1.014.281zm10.477.902c.601 0 1.119-.131 1.552-.392a2.618 2.618 0 0 0 1.002-1.131c.238-.488.358-1.068.358-1.74v-.012c0-.676-.12-1.258-.358-1.746a2.58 2.58 0 0 0-1.002-1.125c-.433-.262-.951-.393-1.552-.393-.598 0-1.116.131-1.553.393-.434.262-.77.637-1.008 1.125-.234.488-.352 1.07-.352 1.746v.012c0 .672.118 1.252.352 1.74.238.488.574.865 1.008 1.131.437.261.955.392 1.553.392zm0-.902c-.399 0-.737-.094-1.014-.281a1.782 1.782 0 0 1-.639-.809c-.144-.351-.217-.775-.217-1.271v-.012c0-.5.073-.926.217-1.277.149-.352.361-.62.639-.803.277-.188.615-.281 1.014-.281.398 0 .736.093 1.013.281.278.183.488.451.633.803.148.351.223.777.223 1.277v.012c0 .496-.075.92-.223 1.271a1.746 1.746 0 0 1-.633.809c-.277.187-.615.281-1.013.281zm6.609.902c.465 0 .853-.091 1.166-.275.316-.184.553-.443.709-.779h.094V492h1.019v-6.316h-1.019v3.738c0 .367-.065.685-.194.955-.129.266-.32.471-.574.615-.254.145-.566.217-.937.217-.504 0-.868-.139-1.09-.416-.219-.277-.328-.699-.328-1.266v-3.843h-1.02v4.089c0 .497.08.92.24 1.272.164.348.409.613.733.797.324.179.724.269 1.201.269zm8.701-.111h1.02v-5.473h1.435v-.843h-1.435v-.674c0-.348.078-.61.234-.785.16-.176.422-.264.785-.264.09 0 .176.002.258.006.082.004.154.012.217.023v-.814a2.853 2.853 0 0 0-.328-.041 3.247 3.247 0 0 0-.352-.018c-.598 0-1.053.154-1.365.463-.313.305-.469.772-.469 1.4v.704h-1.049v.843h1.049V492zm3.926 0h1.019v-3.914c0-.309.071-.578.211-.809.145-.23.342-.41.592-.539.25-.129.537-.193.861-.193.114 0 .219.006.317.017.101.008.205.022.31.042v-.991a3.345 3.345 0 0 0-.222-.023 2.268 2.268 0 0 0-.287-.018c-.426 0-.784.092-1.073.276a1.492 1.492 0 0 0-.615.773h-.094v-.937h-1.019V492zm6.305.111c.285 0 .546-.039.785-.117.238-.082.451-.201.638-.357.192-.157.354-.346.487-.569h.093V492h1.02v-4.324c0-.438-.094-.813-.281-1.125a1.783 1.783 0 0 0-.815-.727c-.355-.168-.791-.252-1.306-.252-.45 0-.85.071-1.202.211-.351.137-.638.33-.861.58a1.692 1.692 0 0 0-.41.867l-.006.036h1.02l.005-.018a.994.994 0 0 1 .487-.568c.242-.137.553-.205.931-.205.473 0 .827.103 1.061.31.238.203.357.5.357.891v1.969c0 .3-.078.57-.234.808a1.617 1.617 0 0 1-.633.568 2.014 2.014 0 0 1-.926.206c-.367 0-.671-.088-.914-.264-.242-.18-.363-.43-.363-.75v-.012c0-.312.11-.555.328-.726.223-.172.574-.272 1.055-.299l2.197-.141v-.814l-2.32.14c-.734.043-1.303.225-1.705.545-.399.317-.598.756-.598 1.319v.011c0 .383.092.715.276.996.187.282.439.498.755.651.321.152.68.228 1.079.228zm7.054 0c.481 0 .91-.08 1.289-.24.383-.16.686-.383.908-.668.223-.289.334-.621.334-.996v-.012c0-.453-.146-.814-.439-1.084-.289-.269-.73-.476-1.324-.621l-.973-.234c-.371-.09-.64-.205-.808-.346a.664.664 0 0 1-.252-.533v-.012c0-.187.056-.351.17-.492a1.1 1.1 0 0 1 .462-.328c.196-.082.418-.123.668-.123.383 0 .694.078.932.234.238.156.391.36.457.61h1.002a1.743 1.743 0 0 0-.387-.897 1.988 1.988 0 0 0-.826-.586c-.34-.14-.73-.211-1.172-.211-.445 0-.845.08-1.201.24a2.113 2.113 0 0 0-.844.657 1.556 1.556 0 0 0-.304.943v.006c0 .453.138.816.416 1.09.277.269.711.474 1.3.615l.979.234c.391.094.672.217.844.37.172.148.258.33.258.544v.012a.768.768 0 0 1-.188.51c-.125.145-.297.26-.516.346a2.09 2.09 0 0 1-.75.123c-.402 0-.728-.08-.978-.241a1.175 1.175 0 0 1-.504-.632h-1.043c.039.347.166.65.381.908.219.258.508.459.867.603.359.141.773.211 1.242.211zm6.692 0c.371 0 .705-.047 1.002-.14.3-.098.56-.227.779-.387.219-.164.396-.346.533-.545.141-.203.238-.412.293-.627l.012-.047h-1.02l-.023.053a1.104 1.104 0 0 1-.287.369 1.637 1.637 0 0 1-.522.299 2.144 2.144 0 0 1-.744.117c-.383 0-.715-.084-.996-.252a1.699 1.699 0 0 1-.65-.732c-.153-.321-.229-.705-.229-1.155v-.404c0-.472.078-.871.234-1.195a1.71 1.71 0 0 1 .633-.733c.27-.168.574-.252.914-.252.34 0 .641.081.903.241.261.156.466.394.615.715.148.32.223.728.223 1.224v.404l.503-.744h-4.541v.815h5.063v-.399c0-.629-.111-1.179-.334-1.652a2.547 2.547 0 0 0-.949-1.113c-.41-.266-.903-.399-1.477-.399-.57 0-1.068.139-1.494.416a2.753 2.753 0 0 0-.99 1.155c-.231.492-.346 1.064-.346 1.716v.006c0 .66.115 1.235.346 1.723.234.484.566.859.996 1.125.433.266.951.398 1.553.398zm5.109-.052a.735.735 0 0 0 .539-.223.744.744 0 0 0 .223-.539.731.731 0 0 0-.223-.539.731.731 0 0 0-.539-.223.744.744 0 0 0-.539.223.731.731 0 0 0-.223.539c0 .207.074.387.223.539a.748.748 0 0 0 .539.223zm0-4.536a.734.734 0 0 0 .539-.222.746.746 0 0 0 .223-.539.731.731 0 0 0-.223-.539.731.731 0 0 0-.539-.223.744.744 0 0 0-.539.223.731.731 0 0 0-.223.539c0 .207.074.386.223.539a.747.747 0 0 0 .539.222zM184.85 624.199c.629 0 1.177-.103 1.646-.31.469-.211.832-.508 1.09-.891.258-.383.387-.838.387-1.365v-.006c0-.609-.19-1.1-.569-1.471-.379-.371-1.009-.654-1.892-.849l-.938-.211c-.574-.125-.986-.303-1.236-.534a1.108 1.108 0 0 1-.375-.849v-.006c0-.297.082-.547.246-.75.168-.207.393-.365.674-.475.281-.109.597-.164.949-.164.367-.004.688.051.961.164.273.114.492.268.656.463.164.192.266.412.305.662l.012.077h1.054l-.006-.082a2.07 2.07 0 0 0-.427-1.143 2.63 2.63 0 0 0-1.032-.809c-.433-.203-.931-.304-1.494-.304-.582 0-1.097.101-1.547.304a2.552 2.552 0 0 0-1.048.844c-.25.36-.377.774-.381 1.242v.006c0 .613.191 1.117.574 1.512.387.391 1.004.68 1.852.867l.937.205c.582.129 1.002.315 1.26.557.258.238.387.533.387.885v.005c0 .286-.086.538-.258.756a1.713 1.713 0 0 1-.709.516 2.686 2.686 0 0 1-1.02.182c-.406 0-.769-.057-1.09-.17a1.915 1.915 0 0 1-.761-.475 1.244 1.244 0 0 1-.323-.732l-.005-.065h-1.055l.006.065c.043.457.197.863.463 1.218.269.352.632.629 1.089.832.461.2 1 .299 1.618.299zm4.775-.199h1.02v-6.316h-1.02V624zm.516-7.535a.682.682 0 0 0 .498-.205.695.695 0 0 0 .205-.498.678.678 0 0 0-.205-.498.678.678 0 0 0-.498-.205.687.687 0 0 0-.498.205.675.675 0 0 0-.205.498.69.69 0 0 0 .205.498c.14.136.306.205.498.205zm5.027 9.762c.574 0 1.072-.096 1.494-.288.422-.187.746-.455.973-.802.23-.348.345-.756.345-1.225v-6.228h-1.019v1.043h-.07a2.201 2.201 0 0 0-.487-.616 2.063 2.063 0 0 0-.662-.398 2.31 2.31 0 0 0-.82-.141c-.551 0-1.026.133-1.424.399a2.596 2.596 0 0 0-.926 1.084c-.215.457-.322.98-.322 1.57v.012c0 .59.107 1.113.322 1.57.215.457.52.816.914 1.078.399.258.869.387 1.412.387.29 0 .559-.041.809-.123a2.15 2.15 0 0 0 1.172-.967h.094v1.277c0 .465-.161.825-.481 1.079-.316.257-.758.386-1.324.386-.453 0-.816-.078-1.09-.234-.273-.152-.437-.348-.492-.586l-.006-.006h-1.055l-.011.006c.054.344.193.644.416.902.226.262.529.463.908.604.379.144.822.217 1.33.217zm-.047-3.457c-.391 0-.723-.09-.996-.27a1.77 1.77 0 0 1-.621-.756 2.723 2.723 0 0 1-.211-1.107v-.012c0-.418.07-.789.211-1.113.144-.324.351-.578.621-.762.273-.184.605-.275.996-.275s.725.091 1.002.275c.281.184.496.438.645.762.152.324.228.695.228 1.113v.012c0 .418-.076.787-.228 1.107a1.78 1.78 0 0 1-.645.756c-.277.18-.611.27-1.002.27zm4.758 1.23h1.019v-3.738c0-.371.067-.69.2-.955a1.48 1.48 0 0 1 .574-.616c.246-.144.537-.216.873-.216.504 0 .875.138 1.113.416.242.273.363.695.363 1.265V624h1.02v-4.09c0-.75-.191-1.326-.574-1.728-.379-.407-.924-.61-1.635-.61-.465 0-.848.094-1.148.282a1.787 1.787 0 0 0-.692.779h-.094v-.949h-1.019V624zm7.031 0h1.02v-6.316h-1.02V624zm.516-7.535a.682.682 0 0 0 .498-.205.69.69 0 0 0 .205-.498.675.675 0 0 0-.205-.498.678.678 0 0 0-.498-.205.687.687 0 0 0-.498.205.675.675 0 0 0-.205.498.69.69 0 0 0 .205.498c.14.136.306.205.498.205zm2.847 7.535h1.02v-5.473h1.436v-.843h-1.436v-.674c0-.348.078-.61.234-.785.161-.176.422-.264.785-.264.09 0 .176.002.258.006.082.004.155.012.217.023v-.814a2.825 2.825 0 0 0-.328-.041 3.234 3.234 0 0 0-.352-.018c-.597 0-1.052.154-1.365.463-.312.305-.469.772-.469 1.4v.704h-1.048v.843h1.048V624zm3.95 0h1.019v-6.316h-1.019V624zm.515-7.535a.678.678 0 0 0 .498-.205.69.69 0 0 0 .205-.498.675.675 0 0 0-.205-.498.675.675 0 0 0-.498-.205.69.69 0 0 0-.498.205.678.678 0 0 0-.205.498c0 .191.069.357.205.498a.695.695 0 0 0 .498.205zm5.01 7.646c.508 0 .941-.084 1.301-.252.359-.168.648-.398.867-.691a2.69 2.69 0 0 0 .457-1.014l.012-.064-1.008.006-.012.035c-.117.351-.31.619-.58.803-.269.183-.617.275-1.043.275-.375 0-.701-.098-.978-.293a1.886 1.886 0 0 1-.645-.826c-.152-.36-.228-.781-.228-1.266v-.012c0-.476.074-.888.222-1.236.153-.351.367-.623.645-.814.277-.192.605-.287.984-.287.453 0 .819.109 1.096.328.277.218.455.484.533.797l.006.017h1.014l-.006-.035a2.325 2.325 0 0 0-1.319-1.74c-.371-.18-.812-.27-1.324-.27-.59 0-1.101.135-1.535.405-.434.265-.769.64-1.008 1.125-.234.484-.351 1.054-.351 1.71v.012c0 .668.119 1.248.357 1.74.238.493.574.874 1.008 1.143.433.27.945.404 1.535.404zm5.865 0c.285 0 .547-.039.785-.117.239-.082.452-.201.639-.357.192-.157.354-.346.486-.569h.094V624h1.02v-4.324c0-.438-.094-.813-.282-1.125a1.78 1.78 0 0 0-.814-.727c-.355-.168-.791-.252-1.307-.252-.449 0-.849.071-1.201.211-.351.137-.638.33-.861.58a1.684 1.684 0 0 0-.41.867l-.006.036h1.019l.006-.018a.986.986 0 0 1 .487-.568c.242-.137.552-.205.931-.205.473 0 .826.103 1.061.31.238.203.357.5.357.891v1.969c0 .3-.078.57-.234.808a1.624 1.624 0 0 1-.633.568c-.27.137-.578.206-.926.206-.367 0-.672-.088-.914-.264-.242-.18-.363-.43-.363-.75v-.012c0-.312.109-.555.328-.726.223-.172.574-.272 1.055-.299l2.197-.141v-.814l-2.32.14c-.735.043-1.303.225-1.705.545-.399.317-.598.756-.598 1.319v.011c0 .383.092.715.275.996.188.282.44.498.756.651.32.152.68.228 1.078.228zm7.219 0c.441 0 .832-.097 1.172-.293.34-.199.605-.474.797-.826h.094V624h1.019v-8.824h-1.019v3.504h-.094a1.911 1.911 0 0 0-.791-.803 2.314 2.314 0 0 0-1.178-.305c-.535 0-1.002.135-1.4.405-.395.269-.702.648-.92 1.136-.219.489-.328 1.063-.328 1.723v.012c0 .656.109 1.23.328 1.722.218.489.527.868.926 1.137.398.27.863.404 1.394.404zm.234-.902c-.382 0-.712-.094-.99-.281a1.845 1.845 0 0 1-.633-.815c-.144-.355-.216-.777-.216-1.265v-.012c0-.492.072-.914.216-1.266.149-.351.36-.621.633-.808.278-.192.608-.287.99-.287a1.7 1.7 0 0 1 .991.287c.277.191.49.463.638.814.149.352.223.772.223 1.26v.012c0 .484-.074.904-.223 1.259a1.82 1.82 0 0 1-.638.815 1.706 1.706 0 0 1-.991.287zm7.401.902c.601 0 1.119-.131 1.553-.392a2.622 2.622 0 0 0 1.001-1.131c.239-.488.358-1.068.358-1.74v-.012c0-.676-.119-1.258-.358-1.746a2.584 2.584 0 0 0-1.001-1.125c-.434-.262-.952-.393-1.553-.393-.598 0-1.115.131-1.553.393a2.624 2.624 0 0 0-1.008 1.125c-.234.488-.351 1.07-.351 1.746v.012c0 .672.117 1.252.351 1.74.239.488.574.865 1.008 1.131.438.261.955.392 1.553.392zm0-.902c-.399 0-.737-.094-1.014-.281a1.789 1.789 0 0 1-.639-.809c-.144-.351-.216-.775-.216-1.271v-.012c0-.5.072-.926.216-1.277.149-.352.362-.62.639-.803.277-.188.615-.281 1.014-.281.398 0 .736.093 1.013.281.278.183.489.451.633.803.149.351.223.777.223 1.277v.012c0 .496-.074.92-.223 1.271a1.74 1.74 0 0 1-.633.809c-.277.187-.615.281-1.013.281zm5.326.85a.735.735 0 0 0 .539-.223.748.748 0 0 0 .223-.539.735.735 0 0 0-.223-.539.731.731 0 0 0-.539-.223.744.744 0 0 0-.539.223.731.731 0 0 0-.223.539c0 .207.074.387.223.539a.748.748 0 0 0 .539.223zm0-4.536a.734.734 0 0 0 .539-.222.75.75 0 0 0 .223-.539.735.735 0 0 0-.223-.539.731.731 0 0 0-.539-.223.744.744 0 0 0-.539.223.731.731 0 0 0-.223.539c0 .207.074.386.223.539a.747.747 0 0 0 .539.222zM182.438 661h6.984v-1.266h-5.578v-3.875h5.289v-1.25h-5.289v-3.617h5.578v-1.265h-6.984V661zm8.687 0h1.523l2-3.18h.125l1.993 3.18h1.593l-2.898-4.266 2.859-4.156h-1.523l-1.977 3.133h-.125l-2-3.133h-1.601l2.914 4.211-2.883 4.211zm9.063 2.812h1.359v-4.14h.125c.156.302.364.562.625.781.265.219.568.391.906.516.344.12.708.179 1.094.179.713 0 1.333-.179 1.859-.539.532-.359.943-.864 1.235-1.515.291-.651.437-1.417.437-2.297v-.016c0-.875-.146-1.638-.437-2.289-.292-.651-.703-1.156-1.235-1.515-.526-.365-1.146-.547-1.859-.547-.391 0-.753.06-1.086.179-.333.12-.63.292-.891.516a2.78 2.78 0 0 0-.648.797h-.125v-1.344h-1.359v11.234zm3.796-3.867c-.51 0-.95-.127-1.32-.383-.37-.255-.654-.617-.852-1.085-.197-.474-.296-1.034-.296-1.68v-.016c0-.651.099-1.211.296-1.679.198-.469.482-.831.852-1.086.37-.256.81-.383 1.32-.383.516 0 .956.127 1.321.383.364.25.643.609.836 1.078.198.468.297 1.031.297 1.687v.016c0 .651-.099 1.213-.297 1.687-.193.469-.472.831-.836 1.086-.365.25-.805.375-1.321.375zm5.969 1.055h1.359v-5.219c0-.411.094-.771.282-1.078a1.98 1.98 0 0 1 .789-.719 2.467 2.467 0 0 1 1.148-.257c.151 0 .292.007.422.023.136.01.274.029.414.055v-1.321a5.228 5.228 0 0 0-.297-.031 3.199 3.199 0 0 0-.382-.023c-.568 0-1.045.122-1.43.367a1.988 1.988 0 0 0-.82 1.031h-.126v-1.25h-1.359V661zm9.297.148c.495 0 .94-.062 1.336-.187.401-.13.747-.302 1.039-.516.292-.218.529-.461.711-.726.187-.271.318-.55.391-.836l.015-.063h-1.359l-.031.071c-.073.166-.201.33-.383.492a2.185 2.185 0 0 1-.696.398 2.857 2.857 0 0 1-.992.157c-.51 0-.953-.112-1.328-.336a2.268 2.268 0 0 1-.867-.977c-.203-.427-.305-.94-.305-1.539v-.539c0-.63.104-1.162.313-1.594.208-.432.489-.758.844-.976a2.253 2.253 0 0 1 1.218-.336c.453 0 .854.106 1.203.32.349.208.623.526.821.953.198.427.297.971.297 1.633v.539l.671-.992h-6.054v1.086h6.75v-.532c0-.838-.149-1.572-.446-2.203a3.398 3.398 0 0 0-1.265-1.484c-.547-.354-1.203-.531-1.969-.531-.76 0-1.424.185-1.992.554a3.671 3.671 0 0 0-1.32 1.539c-.308.657-.461 1.42-.461 2.289v.008c0 .881.153 1.646.461 2.297a3.511 3.511 0 0 0 1.328 1.5c.578.354 1.268.531 2.07.531zm8.594 0c.64 0 1.213-.106 1.718-.32.511-.213.915-.51 1.211-.89a2.12 2.12 0 0 0 .446-1.329v-.015c0-.604-.196-1.086-.586-1.446-.386-.359-.974-.635-1.766-.828l-1.297-.312c-.494-.12-.854-.274-1.078-.461a.89.89 0 0 1-.336-.711v-.016c0-.25.076-.468.227-.656a1.48 1.48 0 0 1 .617-.437c.26-.11.557-.165.891-.165.51 0 .924.105 1.242.313.318.208.521.479.609.813h1.336a2.313 2.313 0 0 0-.516-1.196 2.653 2.653 0 0 0-1.101-.781c-.453-.188-.974-.281-1.563-.281-.593 0-1.127.106-1.601.32-.474.214-.849.505-1.125.875-.271.37-.406.789-.406 1.258v.008c0 .604.185 1.088.554 1.453.37.359.948.633 1.735.82l1.304.313c.521.125.896.289 1.125.492.23.198.344.44.344.726v.016c0 .255-.083.482-.25.68a1.735 1.735 0 0 1-.687.461c-.287.109-.62.164-1 .164-.537 0-.972-.107-1.305-.321a1.565 1.565 0 0 1-.672-.843h-1.391c.053.463.222.867.508 1.21.292.344.677.612 1.157.805.479.188 1.031.281 1.656.281zm8.218 0c.641 0 1.214-.106 1.719-.32.511-.213.914-.51 1.211-.89a2.12 2.12 0 0 0 .446-1.329v-.015c0-.604-.196-1.086-.586-1.446-.386-.359-.974-.635-1.766-.828l-1.297-.312c-.495-.12-.854-.274-1.078-.461a.89.89 0 0 1-.336-.711v-.016c0-.25.076-.468.227-.656.151-.187.356-.333.617-.437.26-.11.557-.165.89-.165.511 0 .925.105 1.243.313.317.208.52.479.609.813h1.336a2.33 2.33 0 0 0-.516-1.196 2.653 2.653 0 0 0-1.101-.781c-.453-.188-.974-.281-1.563-.281-.594 0-1.127.106-1.601.32-.474.214-.849.505-1.125.875-.271.37-.407.789-.407 1.258v.008c0 .604.185 1.088.555 1.453.37.359.948.633 1.734.82l1.305.313c.521.125.896.289 1.125.492.229.198.344.44.344.726v.016c0 .255-.083.482-.25.68a1.732 1.732 0 0 1-.688.461 2.799 2.799 0 0 1-1 .164c-.536 0-.971-.107-1.304-.321a1.556 1.556 0 0 1-.672-.843h-1.391c.052.463.222.867.508 1.21.292.344.677.612 1.156.805.479.188 1.032.281 1.656.281zm7.797 0c.381 0 .73-.052 1.047-.156.318-.109.602-.268.852-.476.255-.209.471-.461.648-.758h.125V661h1.36v-5.766c0-.583-.125-1.083-.375-1.5a2.38 2.38 0 0 0-1.086-.968c-.474-.224-1.055-.336-1.742-.336-.599 0-1.133.093-1.602.281-.469.182-.852.44-1.148.773a2.255 2.255 0 0 0-.547 1.157l-.008.047h1.359l.008-.024c.109-.328.326-.581.648-.758.323-.182.737-.273 1.243-.273.63 0 1.101.138 1.414.414.317.271.476.667.476 1.187v2.625c0 .401-.104.761-.312 1.079a2.17 2.17 0 0 1-.844.757 2.682 2.682 0 0 1-1.234.274c-.49 0-.896-.117-1.219-.352-.323-.239-.484-.573-.484-1v-.015c0-.417.145-.74.437-.969.297-.229.766-.362 1.406-.399l2.93-.187v-1.086l-3.094.187c-.979.058-1.737.3-2.273.727-.532.422-.797 1.008-.797 1.758v.015c0 .511.122.954.367 1.329.25.375.586.664 1.008.867.427.203.906.304 1.437.304zm1.821-9.796c.536 0 .958-.193 1.265-.579.308-.385.461-.914.461-1.585v-.086h-1.094v.031c0 .396-.052.693-.156.89-.104.198-.255.297-.453.297a.544.544 0 0 1-.305-.093 2.332 2.332 0 0 1-.367-.375l-.07-.086c-.188-.23-.38-.391-.578-.485a1.47 1.47 0 0 0-.68-.148c-.536 0-.961.193-1.273.578-.308.385-.461.914-.461 1.586v.086h1.093v-.031c0-.401.053-.698.157-.891.109-.198.263-.297.461-.297.109 0 .213.034.312.102.099.067.219.19.36.367l.07.086c.187.224.377.385.57.484.198.099.427.149.688.149zm8.156 9.796c.802 0 1.492-.174 2.07-.523a3.49 3.49 0 0 0 1.336-1.508c.318-.651.477-1.424.477-2.32v-.016c0-.901-.159-1.677-.477-2.328-.312-.651-.758-1.151-1.336-1.5-.578-.349-1.268-.523-2.07-.523-.797 0-1.487.174-2.07.523-.578.349-1.026.849-1.344 1.5-.313.651-.469 1.427-.469 2.328v.016c0 .896.156 1.669.469 2.32.318.651.766 1.154 1.344 1.508.583.349 1.273.523 2.07.523zm0-1.203c-.531 0-.982-.125-1.352-.375-.369-.25-.653-.609-.851-1.078-.193-.469-.289-1.034-.289-1.695v-.016c0-.666.096-1.234.289-1.703.198-.469.482-.825.851-1.07.37-.25.821-.375 1.352-.375.531 0 .982.125 1.352.375.369.245.651.601.843 1.07.198.469.297 1.037.297 1.703v.016c0 .661-.099 1.226-.297 1.695-.192.469-.474.828-.843 1.078-.37.25-.821.375-1.352.375zm13.328 1.203c.62 0 1.138-.122 1.555-.367.422-.245.737-.591.945-1.039h.125V661h1.359v-8.422h-1.359v4.984c0 .49-.086.915-.258 1.274a1.851 1.851 0 0 1-.765.82c-.339.193-.756.289-1.25.289-.672 0-1.157-.185-1.454-.554-.291-.37-.437-.933-.437-1.688v-5.125h-1.359v5.453c0 .662.106 1.227.32 1.696.219.463.544.817.976 1.062.433.24.967.359 1.602.359zm9.516-.086c.135 0 .268-.007.398-.023s.261-.034.391-.055v-1.156c-.125.011-.232.018-.321.024a5.226 5.226 0 0 1-.304.007c-.438 0-.75-.106-.938-.32-.187-.219-.281-.575-.281-1.07v-4.766h1.844v-1.125h-1.844v-2.18h-1.406v2.18h-1.328v1.125h1.328v5.109c0 .803.192 1.378.578 1.727.391.349 1.018.523 1.883.523zm2.851-.062h1.36v-8.422h-1.36V661zm.688-10.047c.26 0 .482-.091.664-.273a.923.923 0 0 0 .273-.664.903.903 0 0 0-.273-.664.902.902 0 0 0-.664-.274.918.918 0 0 0-.664.274.9.9 0 0 0-.274.664.92.92 0 0 0 .274.664.921.921 0 0 0 .664.273zM283.531 661h1.36v-11.766h-1.36V661zm4 0h1.36v-8.422h-1.36V661zm.688-10.047c.26 0 .482-.091.664-.273a.923.923 0 0 0 .273-.664.903.903 0 0 0-.273-.664.902.902 0 0 0-.664-.274.918.918 0 0 0-.664.274.9.9 0 0 0-.274.664.92.92 0 0 0 .274.664.921.921 0 0 0 .664.273zM291.258 661h6.484v-1.125h-4.859v-.125l4.836-6.164v-1.008h-6.453v1.125h4.851v.125l-4.859 6.188V661zm11.133.148c.38 0 .729-.052 1.047-.156.317-.109.601-.268.851-.476a2.89 2.89 0 0 0 .649-.758h.124V661h1.36v-5.766c0-.583-.125-1.083-.375-1.5a2.38 2.38 0 0 0-1.086-.968c-.474-.224-1.055-.336-1.742-.336-.599 0-1.133.093-1.602.281-.469.182-.851.44-1.148.773a2.255 2.255 0 0 0-.547 1.157l-.008.047h1.359l.008-.024c.11-.328.326-.581.649-.758.323-.182.737-.273 1.242-.273.63 0 1.101.138 1.414.414.318.271.476.667.476 1.187v2.625c0 .401-.104.761-.312 1.079-.203.317-.484.57-.844.757a2.682 2.682 0 0 1-1.234.274c-.49 0-.896-.117-1.219-.352-.323-.239-.484-.573-.484-1v-.015c0-.417.146-.74.437-.969.297-.229.766-.362 1.406-.399l2.93-.187v-1.086l-3.094.187c-.979.058-1.737.3-2.273.727-.531.422-.797 1.008-.797 1.758v.015c0 .511.123.954.367 1.329.25.375.586.664 1.008.867.427.203.906.304 1.438.304zm9.625 0c.588 0 1.109-.13 1.562-.39a2.817 2.817 0 0 0 1.063-1.102h.125V661h1.359v-11.766h-1.359v4.672h-.125a2.552 2.552 0 0 0-1.055-1.07 3.08 3.08 0 0 0-1.57-.406c-.714 0-1.336.179-1.868.539-.526.359-.934.864-1.226 1.515-.292.651-.438 1.417-.438 2.297v.016c0 .875.146 1.641.438 2.297.292.651.703 1.156 1.234 1.515.532.36 1.151.539 1.86.539zm.312-1.203c-.51 0-.95-.125-1.32-.375-.365-.255-.646-.617-.844-1.086-.193-.474-.289-1.036-.289-1.687v-.016c0-.656.096-1.219.289-1.687.198-.469.479-.828.844-1.078.37-.256.81-.383 1.32-.383.511 0 .951.127 1.32.383.37.255.654.617.852 1.086.198.468.297 1.028.297 1.679v.016c0 .646-.099 1.206-.297 1.68-.198.468-.482.83-.852 1.085-.369.256-.809.383-1.32.383zm8.719 1.203c.38 0 .729-.052 1.047-.156.317-.109.601-.268.851-.476.256-.209.472-.461.649-.758h.125V661h1.359v-5.766c0-.583-.125-1.083-.375-1.5a2.38 2.38 0 0 0-1.086-.968c-.474-.224-1.055-.336-1.742-.336-.599 0-1.133.093-1.602.281a2.93 2.93 0 0 0-1.148.773 2.255 2.255 0 0 0-.547 1.157l-.008.047h1.36l.008-.024a1.32 1.32 0 0 1 .648-.758c.323-.182.737-.273 1.242-.273.63 0 1.102.138 1.414.414.318.271.477.667.477 1.187v2.625c0 .401-.104.761-.313 1.079-.203.317-.484.57-.844.757-.359.183-.77.274-1.234.274-.489 0-.896-.117-1.219-.352-.323-.239-.484-.573-.484-1v-.015c0-.417.146-.74.437-.969.297-.229.766-.362 1.407-.399l2.929-.187v-1.086l-3.093.187c-.979.058-1.737.3-2.274.727-.531.422-.797 1.008-.797 1.758v.015c0 .511.123.954.368 1.329.25.375.586.664 1.007.867a3.31 3.31 0 0 0 1.438.304zm11.031 2.664h1.36v-4.14h.124c.157.302.365.562.626.781.265.219.567.391.906.516.344.12.708.179 1.094.179.713 0 1.333-.179 1.859-.539.531-.359.943-.864 1.234-1.515.292-.651.438-1.417.438-2.297v-.016c0-.875-.146-1.638-.438-2.289-.291-.651-.703-1.156-1.234-1.515-.526-.365-1.146-.547-1.859-.547-.391 0-.753.06-1.086.179-.334.12-.631.292-.891.516-.26.219-.477.484-.649.797h-.124v-1.344h-1.36v11.234zm3.797-3.867c-.51 0-.951-.127-1.32-.383-.37-.255-.654-.617-.852-1.085-.198-.474-.297-1.034-.297-1.68v-.016c0-.651.099-1.211.297-1.679.198-.469.482-.831.852-1.086.369-.256.81-.383 1.32-.383.516 0 .956.127 1.32.383.365.25.644.609.836 1.078.198.468.297 1.031.297 1.687v.016c0 .651-.099 1.213-.297 1.687-.192.469-.471.831-.836 1.086-.364.25-.804.375-1.32.375zm8.281 1.203c.38 0 .729-.052 1.047-.156.318-.109.602-.268.852-.476.255-.209.471-.461.648-.758h.125V661h1.36v-5.766c0-.583-.126-1.083-.376-1.5-.244-.422-.606-.744-1.085-.968-.474-.224-1.055-.336-1.743-.336-.599 0-1.132.093-1.601.281-.469.182-.852.44-1.149.773a2.254 2.254 0 0 0-.546 1.157l-.008.047h1.359l.008-.024a1.32 1.32 0 0 1 .648-.758c.323-.182.737-.273 1.243-.273.63 0 1.101.138 1.414.414.317.271.476.667.476 1.187v2.625c0 .401-.104.761-.312 1.079-.204.317-.485.57-.844.757-.36.183-.771.274-1.234.274-.49 0-.896-.117-1.219-.352-.323-.239-.485-.573-.485-1v-.015c0-.417.146-.74.438-.969.297-.229.766-.362 1.406-.399l2.93-.187v-1.086l-3.094.187c-.979.058-1.737.3-2.273.727-.532.422-.797 1.008-.797 1.758v.015c0 .511.122.954.367 1.329.25.375.586.664 1.008.867.427.203.906.304 1.437.304zm6.516-.148h1.359v-5.219c0-.411.094-.771.281-1.078a1.99 1.99 0 0 1 .79-.719 2.467 2.467 0 0 1 1.148-.257c.151 0 .292.007.422.023.135.01.273.029.414.055v-1.321a5.332 5.332 0 0 0-.297-.031 3.216 3.216 0 0 0-.383-.023c-.567 0-1.044.122-1.429.367a1.995 1.995 0 0 0-.821 1.031h-.125v-1.25h-1.359V661zm8.406.148c.38 0 .729-.052 1.047-.156.318-.109.602-.268.852-.476.255-.209.471-.461.648-.758h.125V661h1.359v-5.766c0-.583-.125-1.083-.375-1.5-.244-.422-.606-.744-1.086-.968-.474-.224-1.054-.336-1.742-.336-.599 0-1.133.093-1.601.281-.469.182-.852.44-1.149.773a2.263 2.263 0 0 0-.547 1.157l-.007.047h1.359l.008-.024a1.32 1.32 0 0 1 .648-.758c.323-.182.737-.273 1.242-.273.631 0 1.102.138 1.414.414.318.271.477.667.477 1.187v2.625c0 .401-.104.761-.312 1.079-.204.317-.485.57-.844.757-.36.183-.771.274-1.235.274-.489 0-.895-.117-1.218-.352-.323-.239-.485-.573-.485-1v-.015c0-.417.146-.74.438-.969.297-.229.765-.362 1.406-.399l2.93-.187v-1.086l-3.094.187c-.979.058-1.737.3-2.274.727-.531.422-.796 1.008-.796 1.758v.015c0 .511.122.954.367 1.329.25.375.586.664 1.008.867.427.203.906.304 1.437.304zm14.141 0c.588 0 1.109-.13 1.562-.39a2.81 2.81 0 0 0 1.063-1.102h.125V661h1.359v-11.766h-1.359v4.672h-.125a2.546 2.546 0 0 0-1.055-1.07 3.08 3.08 0 0 0-1.57-.406c-.714 0-1.336.179-1.867.539-.526.359-.935.864-1.227 1.515-.292.651-.437 1.417-.437 2.297v.016c0 .875.145 1.641.437 2.297.292.651.703 1.156 1.234 1.515.532.36 1.151.539 1.86.539zm.312-1.203c-.51 0-.95-.125-1.32-.375-.365-.255-.646-.617-.844-1.086-.193-.474-.289-1.036-.289-1.687v-.016c0-.656.096-1.219.289-1.687.198-.469.479-.828.844-1.078.37-.256.81-.383 1.32-.383.511 0 .951.127 1.321.383.369.255.653.617.851 1.086.198.468.297 1.028.297 1.679v.016c0 .646-.099 1.206-.297 1.68-.198.468-.482.83-.851 1.085-.37.256-.81.383-1.321.383zm6.438 1.055h1.359v-8.422h-1.359V661zm.687-10.047a.903.903 0 0 0 .664-.273.92.92 0 0 0 .274-.664.9.9 0 0 0-.274-.664.9.9 0 0 0-.664-.274.92.92 0 0 0-.664.274.903.903 0 0 0-.273.664c0 .255.091.476.273.664a.923.923 0 0 0 .664.273zM383.695 661h6.485v-1.125h-4.86v-.125l4.836-6.164v-1.008h-6.453v1.125h4.852v.125l-4.86 6.188V661zm12.024.148c.495 0 .94-.062 1.336-.187.401-.13.747-.302 1.039-.516.291-.218.528-.461.711-.726.187-.271.317-.55.39-.836l.016-.063h-1.359l-.032.071c-.073.166-.2.33-.382.492a2.196 2.196 0 0 1-.696.398 2.857 2.857 0 0 1-.992.157c-.51 0-.953-.112-1.328-.336a2.268 2.268 0 0 1-.867-.977c-.203-.427-.305-.94-.305-1.539v-.539c0-.63.104-1.162.312-1.594.209-.432.49-.758.844-.976.36-.224.766-.336 1.219-.336.453 0 .854.106 1.203.32.349.208.623.526.82.953.198.427.297.971.297 1.633v.539l.672-.992h-6.055v1.086h6.75v-.532c0-.838-.148-1.572-.445-2.203a3.398 3.398 0 0 0-1.265-1.484c-.547-.354-1.204-.531-1.969-.531-.761 0-1.425.185-1.992.554-.568.37-1.008.883-1.321 1.539-.307.657-.461 1.42-.461 2.289v.008c0 .881.154 1.646.461 2.297a3.524 3.524 0 0 0 1.328 1.5c.579.354 1.269.531 2.071.531zm5.703-.148h1.359v-5.219c0-.411.094-.771.281-1.078a1.99 1.99 0 0 1 .79-.719 2.467 2.467 0 0 1 1.148-.257c.151 0 .292.007.422.023.135.01.273.029.414.055v-1.321a5.332 5.332 0 0 0-.297-.031 3.216 3.216 0 0 0-.383-.023c-.567 0-1.044.122-1.429.367a1.995 1.995 0 0 0-.821 1.031h-.125v-1.25h-1.359V661zm16.484 2.812h1.36v-11.234h-1.36v1.406h-.094a2.997 2.997 0 0 0-.679-.828 2.958 2.958 0 0 0-.914-.539 3.026 3.026 0 0 0-1.071-.187c-.713 0-1.336.179-1.867.539-.531.359-.942.864-1.234 1.515-.292.651-.438 1.417-.438 2.297v.016c0 .875.146 1.641.438 2.297.292.651.703 1.156 1.234 1.515.531.36 1.154.539 1.867.539.401 0 .771-.054 1.11-.164.344-.114.646-.276.906-.484a2.38 2.38 0 0 0 .617-.766h.125v4.078zm-2.437-3.867c-.516 0-.959-.125-1.328-.375-.365-.255-.646-.617-.844-1.086-.198-.474-.297-1.036-.297-1.687v-.016c0-.656.096-1.219.289-1.687.198-.469.482-.828.852-1.078.369-.256.81-.383 1.32-.383s.95.127 1.32.383c.37.255.657.619.86 1.093.203.469.304 1.026.304 1.672v.016c0 .641-.101 1.198-.304 1.672-.203.469-.49.833-.86 1.093-.37.256-.807.383-1.312.383zm9.133 1.203c.619 0 1.138-.122 1.554-.367.422-.245.737-.591.946-1.039h.125V661h1.359v-8.422h-1.359v4.984c0 .49-.086.915-.258 1.274a1.848 1.848 0 0 1-.766.82c-.338.193-.755.289-1.25.289-.672 0-1.156-.185-1.453-.554-.292-.37-.438-.933-.438-1.688v-5.125h-1.359v5.453c0 .662.107 1.227.32 1.696.219.463.545.817.977 1.062.432.24.966.359 1.602.359zm9.96 0c.495 0 .941-.062 1.336-.187a3.65 3.65 0 0 0 1.04-.516 3.12 3.12 0 0 0 .71-.726c.188-.271.318-.55.391-.836l.016-.063h-1.36l-.031.071c-.073.166-.2.33-.383.492a2.18 2.18 0 0 1-.695.398 2.857 2.857 0 0 1-.992.157c-.511 0-.953-.112-1.328-.336a2.277 2.277 0 0 1-.868-.977c-.203-.427-.304-.94-.304-1.539v-.539c0-.63.104-1.162.312-1.594.209-.432.49-.758.844-.976a2.257 2.257 0 0 1 1.219-.336c.453 0 .854.106 1.203.32.349.208.622.526.82.953.198.427.297.971.297 1.633v.539l.672-.992h-6.055v1.086h6.75v-.532c0-.838-.148-1.572-.445-2.203a3.407 3.407 0 0 0-1.266-1.484c-.547-.354-1.203-.531-1.968-.531-.761 0-1.425.185-1.993.554-.567.37-1.007.883-1.32 1.539-.307.657-.461 1.42-.461 2.289v.008c0 .881.154 1.646.461 2.297.313.646.755 1.146 1.328 1.5.578.354 1.268.531 2.07.531zm-250.078 25.985c.375 0 .722-.05 1.039-.149a2.7 2.7 0 0 0 .844-.437c.245-.193.44-.422.586-.688h.141V687h2.25v-5.875c0-.609-.141-1.13-.422-1.563-.276-.437-.68-.77-1.211-1-.531-.234-1.177-.351-1.938-.351-.718 0-1.351.104-1.898.312-.542.209-.974.5-1.297.875a2.461 2.461 0 0 0-.57 1.321l-.008.07h2.109l.016-.031c.089-.255.26-.451.516-.586.26-.141.596-.211 1.007-.211.469 0 .826.101 1.071.305.25.198.375.484.375.859v2.742c0 .302-.081.576-.242.821a1.723 1.723 0 0 1-.657.57 2.06 2.06 0 0 1-.945.211c-.396 0-.719-.094-.969-.281a.916.916 0 0 1-.375-.774v-.016c0-.312.12-.559.36-.742.239-.182.604-.286 1.093-.312l2.86-.188v-1.39l-3.203.195c-1.068.062-1.891.315-2.469.758-.578.437-.867 1.044-.867 1.82v.016c0 .521.119.976.359 1.367.24.385.57.685.992.898.427.209.912.313 1.453.313zm7.172-.133h2.282v-11.891h-2.282V687zm8.438 3.023c.87 0 1.622-.135 2.258-.406.635-.265 1.125-.646 1.468-1.14.349-.49.524-1.071.524-1.743v-8.336h-2.282v1.407h-.109a2.603 2.603 0 0 0-1.476-1.36 3.035 3.035 0 0 0-1.086-.187c-.735 0-1.368.177-1.899.531-.526.354-.932.849-1.219 1.484-.281.636-.421 1.375-.421 2.219v.016c0 .812.14 1.528.421 2.148.287.62.691 1.104 1.211 1.453.526.344 1.149.516 1.868.516.395 0 .757-.052 1.086-.156.333-.11.624-.268.874-.477.256-.208.461-.463.618-.765h.14v1.601c0 .5-.169.886-.508 1.156-.338.276-.812.414-1.421.414-.506 0-.907-.078-1.203-.234-.292-.156-.469-.359-.532-.609l-.008-.032h-2.257v.039c.062.485.255.912.578 1.282.323.375.765.664 1.328.867.568.208 1.25.312 2.047.312zm.031-5.148c-.411 0-.76-.099-1.047-.297a1.977 1.977 0 0 1-.664-.836 3.182 3.182 0 0 1-.226-1.242v-.016c0-.474.075-.888.226-1.242.156-.359.378-.638.664-.836.287-.198.636-.297 1.047-.297.411 0 .763.099 1.055.297.291.198.515.477.672.836.161.36.242.774.242 1.242v.016c0 .474-.081.888-.242 1.242a1.963 1.963 0 0 1-.672.836c-.292.198-.644.297-1.055.297zm9.344 2.305c.614 0 1.135-.133 1.562-.399.427-.271.737-.64.93-1.109h.141V687h2.281v-8.602h-2.281v4.969c0 .386-.068.724-.204 1.016-.13.286-.325.51-.586.672-.255.156-.57.234-.945.234-.541 0-.935-.156-1.179-.469-.24-.312-.36-.773-.36-1.382v-5.04h-2.281v5.563c0 .682.109 1.266.328 1.75.219.479.544.844.977 1.094.437.25.976.375 1.617.375zm10.984 0c.63 0 1.175-.078 1.633-.235.463-.161.849-.369 1.156-.625.313-.255.557-.528.735-.82.177-.297.299-.581.367-.852l.015-.078h-2.125l-.023.047c-.052.11-.151.232-.297.367a1.913 1.913 0 0 1-.562.344 2.191 2.191 0 0 1-.852.149c-.411 0-.766-.092-1.062-.274a1.786 1.786 0 0 1-.688-.789c-.161-.344-.242-.758-.242-1.242v-.922c0-.5.081-.922.242-1.266.167-.349.391-.612.672-.789a1.78 1.78 0 0 1 .976-.273c.37 0 .693.088.969.266.281.171.5.429.656.773.162.344.243.773.243 1.289v.914l1.07-1.352h-5.945v1.43h7.039v-.711c0-.87-.164-1.627-.492-2.273a3.609 3.609 0 0 0-1.407-1.508c-.609-.359-1.333-.539-2.172-.539-.833 0-1.56.185-2.179.555a3.738 3.738 0 0 0-1.43 1.562c-.333.672-.5 1.464-.5 2.375v.008c0 .922.169 1.716.508 2.383.338.666.82 1.182 1.445 1.547.63.359 1.38.539 2.25.539zm.781-9.938 1.844-2.758h-2.156l-1.305 2.758h1.617zm5.063 9.758h2.281v-5.188c0-.328.065-.619.195-.874.131-.261.308-.464.532-.61a1.4 1.4 0 0 1 .789-.226c.442 0 .789.13 1.039.39.25.255.375.612.375 1.07V687h2.281v-5.289c0-.313.063-.589.188-.828.125-.24.299-.43.523-.571.229-.14.497-.21.805-.21.479 0 .836.13 1.07.39.234.261.352.651.352 1.172V687h2.281v-5.906c0-.594-.115-1.104-.344-1.532a2.378 2.378 0 0 0-.961-1c-.411-.234-.904-.351-1.476-.351-.401 0-.774.068-1.118.203-.343.13-.643.315-.898.555-.255.234-.448.51-.578.828h-.141a2.39 2.39 0 0 0-.515-.852 2.248 2.248 0 0 0-.813-.539 2.782 2.782 0 0 0-1.062-.195c-.563 0-1.055.135-1.477.406a2.21 2.21 0 0 0-.906 1.125h-.141v-1.344h-2.281V687zm23.023.148c.802 0 1.492-.174 2.071-.523.578-.354 1.023-.857 1.336-1.508.317-.651.476-1.424.476-2.32v-.016c0-.901-.159-1.677-.476-2.328-.313-.651-.758-1.151-1.336-1.5-.579-.349-1.269-.523-2.071-.523-.797 0-1.487.174-2.07.523-.578.349-1.026.849-1.344 1.5-.312.651-.468 1.427-.468 2.328v.016c0 .896.156 1.669.468 2.32.318.651.766 1.154 1.344 1.508.583.349 1.273.523 2.07.523zm0-1.203c-.531 0-.981-.125-1.351-.375s-.654-.609-.852-1.078c-.193-.469-.289-1.034-.289-1.695v-.016c0-.666.096-1.234.289-1.703.198-.469.482-.825.852-1.07.37-.25.82-.375 1.351-.375.532 0 .982.125 1.352.375.37.245.651.601.844 1.07.198.469.296 1.037.296 1.703v.016c0 .661-.098 1.226-.296 1.695-.193.469-.474.828-.844 1.078-.37.25-.82.375-1.352.375zm8.813 1.203c.62 0 1.138-.122 1.555-.367.421-.245.736-.591.945-1.039h.125V687h1.359v-8.422h-1.359v4.984c0 .49-.086.915-.258 1.274a1.848 1.848 0 0 1-.766.82c-.338.193-.755.289-1.25.289-.672 0-1.156-.185-1.453-.554-.291-.37-.437-.933-.437-1.688v-5.125h-1.36v5.453c0 .662.107 1.227.321 1.696.218.463.544.817.976 1.062.433.24.966.359 1.602.359zm13.258-.015c.375 0 .721-.05 1.039-.149.323-.104.604-.25.843-.437.245-.193.441-.422.586-.688H274V687h2.25v-5.875c0-.609-.141-1.13-.422-1.563-.276-.437-.68-.77-1.211-1-.531-.234-1.177-.351-1.937-.351-.719 0-1.352.104-1.899.312-.541.209-.974.5-1.297.875a2.477 2.477 0 0 0-.57 1.321l-.008.07h2.11l.015-.031c.089-.255.261-.451.516-.586.26-.141.596-.211 1.008-.211.468 0 .825.101 1.07.305.25.198.375.484.375.859v2.742c0 .302-.081.576-.242.821a1.72 1.72 0 0 1-.656.57c-.276.14-.592.211-.946.211-.396 0-.718-.094-.968-.281a.916.916 0 0 1-.376-.774v-.016c0-.312.12-.559.36-.742.239-.182.604-.286 1.094-.312l2.859-.188v-1.39l-3.203.195c-1.068.062-1.891.315-2.469.758-.578.437-.867 1.044-.867 1.82v.016c0 .521.12.976.359 1.367.24.385.571.685.993.898.427.209.911.313 1.453.313zm7.171-.133h2.282v-11.891h-2.282V687zm8.438 3.023c.87 0 1.622-.135 2.258-.406.635-.265 1.125-.646 1.469-1.14.349-.49.523-1.071.523-1.743v-8.336h-2.281v1.407h-.11a2.603 2.603 0 0 0-1.476-1.36 3.027 3.027 0 0 0-1.086-.187c-.735 0-1.367.177-1.899.531-.526.354-.932.849-1.218 1.484-.282.636-.422 1.375-.422 2.219v.016c0 .812.14 1.528.422 2.148.286.62.69 1.104 1.211 1.453.526.344 1.148.516 1.867.516a3.58 3.58 0 0 0 1.086-.156c.333-.11.625-.268.875-.477.255-.208.461-.463.617-.765h.141v1.601c0 .5-.17.886-.508 1.156-.339.276-.813.414-1.422.414-.505 0-.906-.078-1.203-.234-.292-.156-.469-.359-.532-.609l-.007-.032h-2.258v.039c.062.485.255.912.578 1.282.323.375.766.664 1.328.867.568.208 1.25.312 2.047.312zm.031-5.148c-.411 0-.76-.099-1.047-.297a1.984 1.984 0 0 1-.664-.836 3.182 3.182 0 0 1-.226-1.242v-.016c0-.474.075-.888.226-1.242.157-.359.378-.638.664-.836.287-.198.636-.297 1.047-.297.412 0 .763.099 1.055.297.292.198.516.477.672.836.161.36.242.774.242 1.242v.016c0 .474-.081.888-.242 1.242-.156.354-.38.633-.672.836-.292.198-.643.297-1.055.297zm9.344 2.305c.615 0 1.135-.133 1.563-.399.427-.271.736-.64.929-1.109h.141V687h2.281v-8.602h-2.281v4.969c0 .386-.068.724-.203 1.016-.131.286-.326.51-.586.672-.255.156-.571.234-.946.234-.541 0-.934-.156-1.179-.469-.24-.312-.36-.773-.36-1.382v-5.04h-2.281v5.563c0 .682.109 1.266.328 1.75.219.479.545.844.977 1.094.437.25.976.375 1.617.375zm7.203-.18h2.281v-5.188c0-.328.065-.619.196-.874.13-.261.307-.464.531-.61a1.4 1.4 0 0 1 .789-.226c.443 0 .789.13 1.039.39.25.255.375.612.375 1.07V687h2.281v-5.289c0-.313.063-.589.188-.828.125-.24.299-.43.523-.571.229-.14.498-.21.805-.21.479 0 .836.13 1.07.39.235.261.352.651.352 1.172V687h2.281v-5.906c0-.594-.115-1.104-.344-1.532a2.378 2.378 0 0 0-.961-1c-.411-.234-.903-.351-1.476-.351-.401 0-.774.068-1.117.203-.344.13-.644.315-.899.555-.255.234-.448.51-.578.828h-.141a2.376 2.376 0 0 0-.515-.852 2.248 2.248 0 0 0-.813-.539 2.779 2.779 0 0 0-1.062-.195c-.563 0-1.055.135-1.477.406a2.21 2.21 0 0 0-.906 1.125h-.141v-1.344h-2.281V687zm19.125 0h2.281v-11.891h-2.281V687zm7.485.18c.614 0 1.135-.133 1.562-.399.427-.271.737-.64.93-1.109h.14V687h2.282v-8.602h-2.282v4.969c0 .386-.067.724-.203 1.016-.13.286-.325.51-.586.672-.255.156-.57.234-.945.234-.542 0-.935-.156-1.18-.469-.239-.312-.359-.773-.359-1.382v-5.04h-2.281v5.563c0 .682.109 1.266.328 1.75.218.479.544.844.976 1.094.438.25.977.375 1.618.375zm11 2.843c.869 0 1.622-.135 2.257-.406.636-.265 1.125-.646 1.469-1.14.349-.49.524-1.071.524-1.743v-8.336h-2.282v1.407h-.109a2.606 2.606 0 0 0-1.477-1.36 3.027 3.027 0 0 0-1.086-.187c-.734 0-1.367.177-1.898.531-.526.354-.932.849-1.219 1.484-.281.636-.422 1.375-.422 2.219v.016c0 .812.141 1.528.422 2.148.287.62.69 1.104 1.211 1.453.526.344 1.149.516 1.867.516a3.58 3.58 0 0 0 1.086-.156c.334-.11.625-.268.875-.477.255-.208.461-.463.617-.765h.141v1.601c0 .5-.169.886-.508 1.156-.338.276-.812.414-1.422.414-.505 0-.906-.078-1.203-.234-.291-.156-.469-.359-.531-.609l-.008-.032h-2.258v.039c.063.485.256.912.578 1.282.323.375.766.664 1.329.867.567.208 1.25.312 2.047.312zm.031-5.148c-.412 0-.761-.099-1.047-.297a1.97 1.97 0 0 1-.664-.836 3.181 3.181 0 0 1-.227-1.242v-.016c0-.474.076-.888.227-1.242a1.91 1.91 0 0 1 .664-.836c.286-.198.635-.297 1.047-.297.411 0 .763.099 1.054.297.292.198.516.477.672.836.162.36.243.774.243 1.242v.016c0 .474-.081.888-.243 1.242-.156.354-.38.633-.672.836-.291.198-.643.297-1.054.297zm8.843 2.258c.376 0 .722-.05 1.04-.149.322-.104.604-.25.843-.437.245-.193.44-.422.586-.688h.141V687h2.25v-5.875c0-.609-.141-1.13-.422-1.563-.276-.437-.68-.77-1.211-1-.531-.234-1.177-.351-1.937-.351-.719 0-1.352.104-1.899.312-.542.209-.974.5-1.297.875a2.469 2.469 0 0 0-.57 1.321l-.008.07h2.11l.015-.031c.089-.255.261-.451.516-.586.26-.141.596-.211 1.008-.211.468 0 .825.101 1.07.305.25.198.375.484.375.859v2.742c0 .302-.081.576-.242.821a1.723 1.723 0 0 1-.657.57 2.06 2.06 0 0 1-.945.211c-.396 0-.719-.094-.969-.281a.916.916 0 0 1-.375-.774v-.016c0-.312.12-.559.36-.742.239-.182.604-.286 1.094-.312l2.859-.188v-1.39l-3.203.195c-1.068.062-1.891.315-2.469.758-.578.437-.867 1.044-.867 1.82v.016c0 .521.12.976.359 1.367.24.385.571.685.992.898.427.209.912.313 1.453.313zm7.094-.133h2.282v-4.812c0-.407.085-.756.257-1.047a1.7 1.7 0 0 1 .735-.672c.317-.162.692-.242 1.125-.242.177 0 .351.013.523.039.177.02.352.052.524.093v-1.992a3.286 3.286 0 0 0-.399-.078 3.18 3.18 0 0 0-.453-.031c-.557 0-1.023.13-1.398.39a1.948 1.948 0 0 0-.774 1.086h-.14v-1.336h-2.282V687zm15.266.18c.63 0 1.174-.078 1.633-.235.463-.161.849-.369 1.156-.625a3.24 3.24 0 0 0 .734-.82c.177-.297.3-.581.367-.852l.016-.078h-2.125l-.023.047c-.052.11-.151.232-.297.367a1.906 1.906 0 0 1-.563.344 2.182 2.182 0 0 1-.851.149c-.412 0-.766-.092-1.063-.274a1.784 1.784 0 0 1-.687-.789c-.162-.344-.242-.758-.242-1.242v-.922c0-.5.08-.922.242-1.266.166-.349.39-.612.672-.789a1.78 1.78 0 0 1 .976-.273c.37 0 .693.088.969.266.281.171.5.429.656.773.162.344.242.773.242 1.289v.914l1.071-1.352h-5.946v1.43h7.039v-.711c0-.87-.164-1.627-.492-2.273a3.607 3.607 0 0 0-1.406-1.508c-.609-.359-1.333-.539-2.172-.539-.833 0-1.56.185-2.18.555a3.736 3.736 0 0 0-1.429 1.562c-.334.672-.5 1.464-.5 2.375v.008c0 .922.169 1.716.508 2.383.338.666.82 1.182 1.445 1.547.63.359 1.38.539 2.25.539zm9.266 0c.734 0 1.385-.115 1.953-.344.567-.234 1.013-.563 1.336-.984a2.38 2.38 0 0 0 .484-1.485v-.008c0-.635-.206-1.14-.617-1.515-.412-.375-1.047-.656-1.906-.844l-1.43-.305c-.443-.093-.755-.213-.938-.359a.689.689 0 0 1-.273-.563v-.007c0-.193.057-.36.172-.5.12-.141.281-.25.484-.328.203-.079.435-.118.695-.118.428 0 .766.091 1.016.274.25.177.406.383.469.617l.008.039h2.117v-.031a2.278 2.278 0 0 0-.477-1.258c-.281-.38-.685-.682-1.211-.906-.526-.229-1.164-.344-1.914-.344-.713 0-1.341.112-1.883.336-.536.224-.955.539-1.257.945-.297.401-.446.873-.446 1.414v.008c0 .641.203 1.164.61 1.57.411.407 1.026.698 1.843.875l1.438.305c.437.099.75.224.937.375a.702.702 0 0 1 .282.57v.016a.717.717 0 0 1-.188.492 1.283 1.283 0 0 1-.515.336 2.28 2.28 0 0 1-.766.117c-.448 0-.805-.086-1.07-.258a1.29 1.29 0 0 1-.532-.656l-.015-.031h-2.242l.007.031c.052.49.232.925.539 1.305.313.38.743.68 1.29.898.552.214 1.218.321 2 .321zm9.164-.149a6.766 6.766 0 0 0 1.14-.101v-1.696l-.312.032a7.108 7.108 0 0 1-.36.007c-.385 0-.666-.088-.843-.265-.172-.182-.258-.466-.258-.852v-4.039h1.773v-1.719h-1.773v-2.054h-2.305v2.054h-1.328v1.719h1.328v4.563c0 .833.229 1.435.688 1.804.458.365 1.208.547 2.25.547zm5.382.102c.375 0 .722-.05 1.039-.149a2.7 2.7 0 0 0 .844-.437c.245-.193.44-.422.586-.688h.141V687h2.25v-5.875c0-.609-.141-1.13-.422-1.563-.276-.437-.68-.77-1.211-1-.531-.234-1.177-.351-1.938-.351-.718 0-1.351.104-1.898.312-.542.209-.974.5-1.297.875a2.461 2.461 0 0 0-.57 1.321l-.008.07h2.109l.016-.031c.089-.255.26-.451.516-.586.26-.141.596-.211 1.007-.211.469 0 .826.101 1.071.305.25.198.375.484.375.859v2.742c0 .302-.081.576-.242.821a1.723 1.723 0 0 1-.657.57 2.06 2.06 0 0 1-.945.211c-.396 0-.719-.094-.969-.281a.916.916 0 0 1-.375-.774v-.016c0-.312.12-.559.36-.742.239-.182.604-.286 1.093-.312l2.86-.188v-1.39l-3.203.195c-1.068.062-1.891.315-2.469.758-.578.437-.867 1.044-.867 1.82v.016c0 .521.119.976.359 1.367.24.385.57.685.992.898.427.209.912.313 1.453.313zm2.11-9.891 1.844-2.758h-2.157l-1.304 2.758h1.617zm12.898 9.938c.75 0 1.396-.125 1.938-.375a3.174 3.174 0 0 0 1.289-1.078 3.71 3.71 0 0 0 .601-1.625v-.055l-2.109.008-.016.023c-.099.438-.289.766-.57.984-.281.219-.656.329-1.125.329-.406 0-.75-.105-1.031-.313-.281-.208-.498-.513-.649-.914-.146-.406-.218-.898-.218-1.476v-.016c0-.578.072-1.065.218-1.461.146-.396.36-.695.641-.899.286-.208.633-.312 1.039-.312.49 0 .875.128 1.156.383.287.25.469.583.547 1l.008.015h2.117v-.023c-.068-.641-.26-1.198-.578-1.672a3.156 3.156 0 0 0-1.297-1.101c-.547-.261-1.2-.391-1.961-.391-.896 0-1.659.177-2.289.531a3.446 3.446 0 0 0-1.43 1.516c-.328.661-.492 1.466-.492 2.414v.016c0 .953.164 1.765.492 2.437a3.483 3.483 0 0 0 1.43 1.531c.63.349 1.393.524 2.289.524zm5.696-.18h2.281v-4.977c0-.39.067-.729.203-1.015.14-.287.336-.508.586-.664.255-.162.557-.242.906-.242.542 0 .94.156 1.195.468.256.313.383.774.383 1.383V687h2.281v-5.562c0-.688-.114-1.271-.343-1.75a2.386 2.386 0 0 0-.992-1.094c-.433-.255-.969-.383-1.61-.383-.614 0-1.13.135-1.547.406a2.414 2.414 0 0 0-.922 1.11h-.14v-4.618h-2.281V687zm13.828.18c.63 0 1.174-.078 1.632-.235a3.674 3.674 0 0 0 1.157-.625 3.24 3.24 0 0 0 .734-.82c.177-.297.3-.581.367-.852l.016-.078h-2.125l-.024.047c-.052.11-.151.232-.296.367a1.919 1.919 0 0 1-.563.344 2.184 2.184 0 0 1-.852.149c-.411 0-.765-.092-1.062-.274a1.792 1.792 0 0 1-.688-.789c-.161-.344-.242-.758-.242-1.242v-.922c0-.5.081-.922.242-1.266.167-.349.391-.612.672-.789.287-.182.612-.273.977-.273.37 0 .693.088.969.266.281.171.5.429.656.773.161.344.242.773.242 1.289v.914l1.07-1.352h-5.945v1.43h7.039v-.711c0-.87-.164-1.627-.492-2.273a3.607 3.607 0 0 0-1.406-1.508c-.61-.359-1.334-.539-2.172-.539-.833 0-1.56.185-2.18.555a3.745 3.745 0 0 0-1.43 1.562c-.333.672-.5 1.464-.5 2.375v.008c0 .922.17 1.716.508 2.383a3.684 3.684 0 0 0 1.446 1.547c.63.359 1.38.539 2.25.539zm5.859-.18h2.281v-8.602h-2.281V687zm1.148-9.922c.355 0 .657-.122.907-.367.25-.25.375-.55.375-.899 0-.354-.125-.653-.375-.898a1.235 1.235 0 0 0-.907-.375 1.25 1.25 0 0 0-.906.375 1.198 1.198 0 0 0-.383.898c0 .349.128.649.383.899.255.245.557.367.906.367zm7.25 10.102c.886 0 1.644-.177 2.274-.532a3.597 3.597 0 0 0 1.461-1.539c.338-.671.508-1.474.508-2.406v-.015c0-.928-.172-1.724-.516-2.391a3.63 3.63 0 0 0-1.469-1.547c-.63-.359-1.383-.539-2.258-.539s-1.63.182-2.265.547a3.657 3.657 0 0 0-1.461 1.539c-.344.667-.516 1.463-.516 2.391v.015c0 .932.17 1.735.508 2.406.339.667.826 1.18 1.461 1.539.635.355 1.393.532 2.273.532zm0-1.789c-.406 0-.752-.105-1.039-.313-.281-.213-.497-.521-.648-.922-.146-.401-.219-.885-.219-1.453v-.015c0-.563.076-1.042.227-1.438.151-.401.367-.708.648-.922.287-.219.63-.328 1.031-.328.401 0 .743.109 1.024.328.286.214.505.521.656.922.151.396.227.875.227 1.438v.015c0 .563-.076 1.044-.227 1.445-.151.401-.367.709-.648.922-.282.214-.625.321-1.032.321zm7.336 1.687a.978.978 0 0 0 .719-.297.994.994 0 0 0 .297-.719.978.978 0 0 0-.297-.718.978.978 0 0 0-.719-.297.994.994 0 0 0-.718.297.978.978 0 0 0-.297.718c0 .277.099.516.297.719a.994.994 0 0 0 .718.297z" fill="#333"/></g><defs><clipPath id="b"><path fill="#fff" transform="translate(149 80)" d="M0 0h375v812H0z"/></clipPath><clipPath id="d"><path fill="#fff" transform="translate(228 189)" d="M0 0h217v241H0z"/></clipPath><filter id="c" x="119" y="70" width="455" height="892" filterUnits="userSpaceOnUse" color-interpolation-filters="sRGB"><feFlood flood-opacity="0" result="BackgroundImageFix"/><feColorMatrix in="SourceAlpha" values="0 0 0 0 0 0 0 0 0 0 0 0 0 0 0 0 0 0 127 0" result="hardAlpha"/><feMorphology radius="5" in="SourceAlpha" result="effect1_dropShadow_617_24235"/><feOffset dx="10" dy="30"/><feGaussianBlur stdDeviation="22.5"/><feComposite in2="hardAlpha" operator="out"/><feColorMatrix values="0 0 0 0 0 0 0 0 0 0 0 0 0 0 0 0 0 0 0.1 0"/><feBlend in2="BackgroundImageFix" result="effect1_dropShadow_617_24235"/><feBlend in="SourceGraphic" in2="effect1_dropShadow_617_24235" result="shape"/></filter></defs></svg>