<svg width="672" height="672" viewBox="0 0 672 672" fill="none" xmlns="http://www.w3.org/2000/svg">
<rect width="672" height="672" fill="#3D4ED7"/>
<path d="M269.12 526.52H272.538C272.429 527.823 272.064 528.985 271.445 530.006C270.825 531.018 269.954 531.815 268.833 532.398C267.712 532.982 266.349 533.273 264.745 533.273C263.515 533.273 262.407 533.055 261.423 532.617C260.439 532.171 259.596 531.542 258.894 530.73C258.192 529.91 257.654 528.921 257.28 527.764C256.916 526.606 256.734 525.312 256.734 523.881V522.227C256.734 520.796 256.92 519.501 257.294 518.344C257.677 517.186 258.224 516.197 258.935 515.377C259.646 514.548 260.498 513.914 261.491 513.477C262.494 513.039 263.62 512.82 264.868 512.82C266.454 512.82 267.794 513.112 268.888 513.695C269.982 514.279 270.829 515.085 271.431 516.115C272.042 517.145 272.415 518.326 272.552 519.656H269.134C269.043 518.799 268.842 518.066 268.532 517.455C268.232 516.844 267.785 516.38 267.193 516.061C266.6 515.732 265.825 515.568 264.868 515.568C264.085 515.568 263.401 515.714 262.818 516.006C262.234 516.298 261.747 516.726 261.355 517.291C260.963 517.856 260.667 518.553 260.466 519.383C260.275 520.203 260.179 521.142 260.179 522.199V523.881C260.179 524.883 260.265 525.795 260.439 526.615C260.621 527.426 260.894 528.124 261.259 528.707C261.633 529.29 262.107 529.742 262.681 530.061C263.255 530.38 263.943 530.539 264.745 530.539C265.721 530.539 266.509 530.384 267.111 530.074C267.721 529.764 268.182 529.313 268.491 528.721C268.81 528.119 269.02 527.385 269.12 526.52ZM274.138 525.768V525.453C274.138 524.387 274.293 523.398 274.603 522.486C274.913 521.566 275.36 520.768 275.943 520.094C276.536 519.41 277.256 518.882 278.103 518.508C278.96 518.125 279.926 517.934 281.002 517.934C282.086 517.934 283.053 518.125 283.9 518.508C284.757 518.882 285.482 519.41 286.074 520.094C286.666 520.768 287.118 521.566 287.428 522.486C287.737 523.398 287.892 524.387 287.892 525.453V525.768C287.892 526.834 287.737 527.823 287.428 528.734C287.118 529.646 286.666 530.443 286.074 531.127C285.482 531.801 284.761 532.33 283.914 532.713C283.066 533.087 282.105 533.273 281.029 533.273C279.944 533.273 278.974 533.087 278.117 532.713C277.269 532.33 276.549 531.801 275.957 531.127C275.364 530.443 274.913 529.646 274.603 528.734C274.293 527.823 274.138 526.834 274.138 525.768ZM277.433 525.453V525.768C277.433 526.433 277.502 527.062 277.638 527.654C277.775 528.247 277.989 528.766 278.281 529.213C278.573 529.66 278.946 530.01 279.402 530.266C279.858 530.521 280.4 530.648 281.029 530.648C281.64 530.648 282.168 530.521 282.615 530.266C283.071 530.01 283.444 529.66 283.736 529.213C284.028 528.766 284.242 528.247 284.379 527.654C284.525 527.062 284.597 526.433 284.597 525.768V525.453C284.597 524.797 284.525 524.177 284.379 523.594C284.242 523.001 284.023 522.477 283.722 522.021C283.431 521.566 283.057 521.21 282.601 520.955C282.155 520.691 281.622 520.559 281.002 520.559C280.382 520.559 279.844 520.691 279.388 520.955C278.942 521.21 278.573 521.566 278.281 522.021C277.989 522.477 277.775 523.001 277.638 523.594C277.502 524.177 277.433 524.797 277.433 525.453ZM293.389 521.215V533H290.094V518.207H293.198L293.389 521.215ZM292.856 525.057L291.735 525.043C291.735 524.022 291.862 523.079 292.118 522.213C292.373 521.347 292.746 520.595 293.239 519.957C293.731 519.31 294.341 518.813 295.071 518.467C295.809 518.111 296.661 517.934 297.627 517.934C298.302 517.934 298.917 518.034 299.473 518.234C300.038 518.426 300.526 518.731 300.936 519.15C301.355 519.57 301.674 520.107 301.893 520.764C302.121 521.42 302.235 522.213 302.235 523.143V533H298.94V523.43C298.94 522.71 298.83 522.145 298.612 521.734C298.402 521.324 298.097 521.033 297.696 520.859C297.304 520.677 296.834 520.586 296.287 520.586C295.668 520.586 295.139 520.704 294.701 520.941C294.273 521.178 293.922 521.502 293.649 521.912C293.375 522.322 293.175 522.796 293.047 523.334C292.92 523.872 292.856 524.446 292.856 525.057ZM302.03 524.182L300.485 524.523C300.485 523.63 300.608 522.787 300.854 521.994C301.109 521.192 301.478 520.49 301.961 519.889C302.453 519.278 303.06 518.799 303.78 518.453C304.5 518.107 305.325 517.934 306.254 517.934C307.011 517.934 307.685 518.038 308.278 518.248C308.879 518.449 309.39 518.768 309.809 519.205C310.228 519.643 310.547 520.212 310.766 520.914C310.985 521.607 311.094 522.445 311.094 523.43V533H307.785V523.416C307.785 522.669 307.676 522.09 307.457 521.68C307.248 521.27 306.947 520.987 306.555 520.832C306.163 520.668 305.694 520.586 305.147 520.586C304.636 520.586 304.185 520.682 303.793 520.873C303.41 521.055 303.087 521.315 302.823 521.652C302.558 521.98 302.358 522.359 302.221 522.787C302.093 523.215 302.03 523.68 302.03 524.182ZM317.452 518.207V533H314.143V518.207H317.452ZM313.925 514.324C313.925 513.823 314.089 513.408 314.417 513.08C314.754 512.743 315.219 512.574 315.811 512.574C316.395 512.574 316.855 512.743 317.192 513.08C317.53 513.408 317.698 513.823 317.698 514.324C317.698 514.816 317.53 515.227 317.192 515.555C316.855 515.883 316.395 516.047 315.811 516.047C315.219 516.047 314.754 515.883 314.417 515.555C314.089 515.227 313.925 514.816 313.925 514.324ZM323.769 521.365V533H320.474V518.207H323.578L323.769 521.365ZM323.181 525.057L322.115 525.043C322.124 523.995 322.27 523.033 322.552 522.158C322.844 521.283 323.245 520.531 323.755 519.902C324.275 519.273 324.895 518.79 325.615 518.453C326.335 518.107 327.137 517.934 328.021 517.934C328.732 517.934 329.374 518.034 329.949 518.234C330.532 518.426 331.029 518.74 331.439 519.178C331.858 519.615 332.177 520.185 332.396 520.887C332.615 521.579 332.724 522.432 332.724 523.443V533H329.415V523.43C329.415 522.719 329.311 522.158 329.101 521.748C328.9 521.329 328.604 521.033 328.212 520.859C327.83 520.677 327.351 520.586 326.777 520.586C326.212 520.586 325.706 520.704 325.259 520.941C324.813 521.178 324.434 521.502 324.124 521.912C323.824 522.322 323.591 522.796 323.427 523.334C323.263 523.872 323.181 524.446 323.181 525.057ZM345.002 518.207H347.996V532.59C347.996 533.921 347.714 535.051 347.148 535.98C346.583 536.91 345.795 537.617 344.783 538.1C343.771 538.592 342.6 538.838 341.27 538.838C340.704 538.838 340.076 538.756 339.383 538.592C338.699 538.428 338.034 538.163 337.387 537.799C336.749 537.443 336.215 536.974 335.787 536.391L337.332 534.449C337.861 535.078 338.444 535.538 339.082 535.83C339.72 536.122 340.39 536.268 341.092 536.268C341.848 536.268 342.491 536.126 343.02 535.844C343.557 535.57 343.972 535.165 344.264 534.627C344.555 534.089 344.701 533.433 344.701 532.658V521.557L345.002 518.207ZM334.953 525.768V525.48C334.953 524.359 335.09 523.339 335.363 522.418C335.637 521.488 336.029 520.691 336.539 520.025C337.049 519.351 337.669 518.836 338.398 518.48C339.128 518.116 339.952 517.934 340.873 517.934C341.83 517.934 342.646 518.107 343.32 518.453C344.004 518.799 344.574 519.296 345.029 519.943C345.485 520.581 345.84 521.347 346.096 522.24C346.36 523.124 346.556 524.109 346.684 525.193V526.109C346.565 527.167 346.365 528.133 346.082 529.008C345.799 529.883 345.426 530.639 344.961 531.277C344.496 531.915 343.922 532.408 343.238 532.754C342.564 533.1 341.766 533.273 340.846 533.273C339.943 533.273 339.128 533.087 338.398 532.713C337.678 532.339 337.059 531.815 336.539 531.141C336.029 530.466 335.637 529.673 335.363 528.762C335.09 527.841 334.953 526.843 334.953 525.768ZM338.248 525.48V525.768C338.248 526.442 338.312 527.071 338.439 527.654C338.576 528.238 338.781 528.753 339.055 529.199C339.337 529.637 339.693 529.983 340.121 530.238C340.559 530.484 341.074 530.607 341.666 530.607C342.441 530.607 343.074 530.443 343.566 530.115C344.068 529.787 344.451 529.345 344.715 528.789C344.988 528.224 345.18 527.595 345.289 526.902V524.428C345.234 523.89 345.12 523.389 344.947 522.924C344.783 522.459 344.56 522.053 344.277 521.707C343.995 521.352 343.639 521.078 343.211 520.887C342.783 520.686 342.277 520.586 341.693 520.586C341.101 520.586 340.586 520.714 340.148 520.969C339.711 521.224 339.351 521.575 339.068 522.021C338.795 522.468 338.59 522.988 338.453 523.58C338.316 524.173 338.248 524.806 338.248 525.48ZM365.566 528.994C365.566 528.666 365.484 528.37 365.319 528.105C365.155 527.832 364.841 527.586 364.376 527.367C363.92 527.148 363.246 526.948 362.353 526.766C361.569 526.592 360.849 526.387 360.193 526.15C359.545 525.904 358.989 525.608 358.525 525.262C358.06 524.915 357.7 524.505 357.444 524.031C357.189 523.557 357.062 523.01 357.062 522.391C357.062 521.789 357.194 521.219 357.458 520.682C357.722 520.144 358.101 519.67 358.593 519.26C359.085 518.85 359.682 518.526 360.384 518.289C361.095 518.052 361.888 517.934 362.763 517.934C364.002 517.934 365.064 518.143 365.948 518.562C366.842 518.973 367.525 519.533 367.999 520.244C368.473 520.946 368.71 521.739 368.71 522.623H365.415C365.415 522.231 365.315 521.867 365.114 521.529C364.923 521.183 364.631 520.905 364.239 520.695C363.847 520.477 363.355 520.367 362.763 520.367C362.198 520.367 361.728 520.458 361.355 520.641C360.99 520.814 360.717 521.042 360.534 521.324C360.361 521.607 360.275 521.917 360.275 522.254C360.275 522.5 360.32 522.723 360.411 522.924C360.512 523.115 360.676 523.293 360.903 523.457C361.131 523.612 361.441 523.758 361.833 523.895C362.234 524.031 362.735 524.163 363.337 524.291C364.467 524.528 365.438 524.833 366.249 525.207C367.069 525.572 367.698 526.046 368.136 526.629C368.573 527.203 368.792 527.932 368.792 528.816C368.792 529.473 368.651 530.074 368.368 530.621C368.095 531.159 367.694 531.628 367.165 532.029C366.637 532.421 366.003 532.727 365.265 532.945C364.536 533.164 363.715 533.273 362.804 533.273C361.464 533.273 360.329 533.036 359.4 532.562C358.47 532.079 357.763 531.464 357.28 530.717C356.806 529.96 356.569 529.176 356.569 528.365H359.755C359.791 528.976 359.96 529.464 360.261 529.828C360.571 530.184 360.954 530.443 361.409 530.607C361.874 530.762 362.353 530.84 362.845 530.84C363.437 530.84 363.934 530.762 364.335 530.607C364.736 530.443 365.041 530.225 365.251 529.951C365.461 529.669 365.566 529.35 365.566 528.994ZM370.488 525.768V525.453C370.488 524.387 370.643 523.398 370.953 522.486C371.263 521.566 371.709 520.768 372.293 520.094C372.885 519.41 373.605 518.882 374.453 518.508C375.31 518.125 376.276 517.934 377.351 517.934C378.436 517.934 379.402 518.125 380.25 518.508C381.106 518.882 381.831 519.41 382.424 520.094C383.016 520.768 383.467 521.566 383.777 522.486C384.087 523.398 384.242 524.387 384.242 525.453V525.768C384.242 526.834 384.087 527.823 383.777 528.734C383.467 529.646 383.016 530.443 382.424 531.127C381.831 531.801 381.111 532.33 380.263 532.713C379.416 533.087 378.454 533.273 377.379 533.273C376.294 533.273 375.323 533.087 374.466 532.713C373.619 532.33 372.899 531.801 372.306 531.127C371.714 530.443 371.263 529.646 370.953 528.734C370.643 527.823 370.488 526.834 370.488 525.768ZM373.783 525.453V525.768C373.783 526.433 373.851 527.062 373.988 527.654C374.125 528.247 374.339 528.766 374.631 529.213C374.922 529.66 375.296 530.01 375.752 530.266C376.207 530.521 376.75 530.648 377.379 530.648C377.989 530.648 378.518 530.521 378.965 530.266C379.42 530.01 379.794 529.66 380.086 529.213C380.377 528.766 380.591 528.247 380.728 527.654C380.874 527.062 380.947 526.433 380.947 525.768V525.453C380.947 524.797 380.874 524.177 380.728 523.594C380.591 523.001 380.373 522.477 380.072 522.021C379.78 521.566 379.407 521.21 378.951 520.955C378.504 520.691 377.971 520.559 377.351 520.559C376.731 520.559 376.194 520.691 375.738 520.955C375.291 521.21 374.922 521.566 374.631 522.021C374.339 522.477 374.125 523.001 373.988 523.594C373.851 524.177 373.783 524.797 373.783 525.453ZM385.815 525.768V525.453C385.815 524.387 385.97 523.398 386.28 522.486C386.589 521.566 387.036 520.768 387.619 520.094C388.212 519.41 388.932 518.882 389.78 518.508C390.636 518.125 391.602 517.934 392.678 517.934C393.763 517.934 394.729 518.125 395.576 518.508C396.433 518.882 397.158 519.41 397.75 520.094C398.343 520.768 398.794 521.566 399.104 522.486C399.414 523.398 399.569 524.387 399.569 525.453V525.768C399.569 526.834 399.414 527.823 399.104 528.734C398.794 529.646 398.343 530.443 397.75 531.127C397.158 531.801 396.438 532.33 395.59 532.713C394.742 533.087 393.781 533.273 392.705 533.273C391.621 533.273 390.65 533.087 389.793 532.713C388.946 532.33 388.226 531.801 387.633 531.127C387.041 530.443 386.589 529.646 386.28 528.734C385.97 527.823 385.815 526.834 385.815 525.768ZM389.11 525.453V525.768C389.11 526.433 389.178 527.062 389.315 527.654C389.451 528.247 389.666 528.766 389.957 529.213C390.249 529.66 390.623 530.01 391.078 530.266C391.534 530.521 392.076 530.648 392.705 530.648C393.316 530.648 393.845 530.521 394.291 530.266C394.747 530.01 395.121 529.66 395.412 529.213C395.704 528.766 395.918 528.247 396.055 527.654C396.201 527.062 396.274 526.433 396.274 525.768V525.453C396.274 524.797 396.201 524.177 396.055 523.594C395.918 523.001 395.699 522.477 395.399 522.021C395.107 521.566 394.733 521.21 394.278 520.955C393.831 520.691 393.298 520.559 392.678 520.559C392.058 520.559 391.52 520.691 391.065 520.955C390.618 521.21 390.249 521.566 389.957 522.021C389.666 522.477 389.451 523.001 389.315 523.594C389.178 524.177 389.11 524.797 389.11 525.453ZM405.038 521.365V533H401.743V518.207H404.846L405.038 521.365ZM404.45 525.057L403.384 525.043C403.393 523.995 403.539 523.033 403.821 522.158C404.113 521.283 404.514 520.531 405.024 519.902C405.544 519.273 406.164 518.79 406.884 518.453C407.604 518.107 408.406 517.934 409.29 517.934C410.001 517.934 410.643 518.034 411.218 518.234C411.801 518.426 412.298 518.74 412.708 519.178C413.127 519.615 413.446 520.185 413.665 520.887C413.884 521.579 413.993 522.432 413.993 523.443V533H410.684V523.43C410.684 522.719 410.58 522.158 410.37 521.748C410.169 521.329 409.873 521.033 409.481 520.859C409.098 520.677 408.62 520.586 408.046 520.586C407.481 520.586 406.975 520.704 406.528 520.941C406.082 521.178 405.703 521.502 405.393 521.912C405.093 522.322 404.86 522.796 404.696 523.334C404.532 523.872 404.45 524.446 404.45 525.057Z" fill="white"/>
<g clip-path="url(#clip0_607_22121)">
<path d="M338.807 348.57V356.34H336.636C332.832 356.34 330.296 354.962 329.133 352.262C327.073 355.183 324.008 357 320.257 357C312.859 357 307.258 350.664 307.258 342.288C307.258 333.912 312.863 327.597 320.26 327.597C323.589 327.597 326.39 329.03 328.397 331.345V328.254H336.112V346.311C336.112 347.743 336.904 348.574 338.282 348.574L338.807 348.57ZM328.397 342.288C328.397 338.321 325.597 335.362 321.791 335.362C318.039 335.362 315.239 338.321 315.239 342.288C315.239 346.255 318.039 349.231 321.791 349.231C325.597 349.231 328.397 346.255 328.397 342.288Z" fill="white"/>
<path d="M372.657 348.569V356.339H370.487C366.682 356.339 364.146 354.961 362.983 352.262C360.922 355.182 357.858 357 354.106 357C346.709 357 341.108 350.663 341.108 342.287C341.108 333.911 346.714 327.597 354.11 327.597C357.44 327.597 360.245 329.03 362.248 331.344V328.254H369.963V346.311C369.963 347.743 370.756 348.574 372.133 348.574L372.657 348.569ZM362.248 342.287C362.248 338.32 359.448 335.362 355.642 335.362C351.891 335.362 349.09 338.32 349.09 342.287C349.09 346.254 351.891 349.23 355.642 349.23C359.448 349.23 362.248 346.255 362.248 342.287Z" fill="white"/>
<path d="M278.835 328.253H270.685V356.343H278.835V328.253Z" fill="white"/>
<path d="M274.76 324.928C277.389 324.928 279.52 322.706 279.52 319.964C279.52 317.222 277.389 315 274.76 315C272.131 315 270 317.222 270 319.964C270 322.706 272.131 324.928 274.76 324.928Z" fill="white"/>
<path d="M295.048 338.461C294.316 338.241 293.626 338.033 292.959 337.81C292.524 337.664 291.199 337.22 291.199 336.137C291.199 335.344 291.633 334.397 293.698 334.397C295.213 334.397 296.423 335.176 297.298 336.711L304.122 333.502C303.115 331.851 302.022 330.393 300.395 329.368C296.714 327.043 291.031 326.995 287.177 329.26C285.217 330.411 282.881 332.639 282.881 336.715C282.881 339.319 283.862 341.242 285.968 342.768C287.85 344.13 290.255 344.933 292.628 345.713C293.324 345.941 293.98 346.157 294.621 346.385C295.761 346.793 296.339 347.385 296.339 348.142C296.339 349.062 295.829 350.158 293.402 350.158C291.219 350.158 289.7 349.166 288.878 347.206L281.816 350.914C283.85 355.008 287.667 357 293.457 357C296.578 357 299.308 356.238 301.573 354.736C304.781 352.605 305.458 348.234 304.466 345.02C303.202 340.92 298.893 339.613 295.048 338.461Z" fill="white"/>
<path d="M384.764 346.972C383.624 345.762 383.047 344.191 383.047 342.301C383.047 340.412 383.624 338.839 384.764 337.63C385.904 336.422 387.349 335.803 389.055 335.803C391.28 335.803 392.968 336.689 394.084 338.432L400.996 334.269C399.834 332.309 398.218 330.684 396.297 329.545C394.154 328.257 391.737 327.597 389.111 327.597C385.066 327.597 381.65 329.02 378.96 331.829C376.269 334.638 374.902 338.158 374.902 342.3C374.902 346.442 376.266 349.966 378.96 352.77C381.653 355.575 385.065 357.002 389.111 357.002C391.737 357.002 394.154 356.347 396.297 355.055C398.229 353.907 399.848 352.263 401 350.28L394.101 346.126C393.043 347.897 391.349 348.8 389.055 348.8C387.349 348.798 385.905 348.184 384.764 346.972Z" fill="white"/>
</g>
<defs>
<clipPath id="clip0_607_22121">
<rect width="131" height="42" fill="white" transform="translate(270 315)"/>
</clipPath>
</defs>
</svg>
